<?xml version="1.0" encoding="UTF-8"?>
<!DOCTYPE svg PUBLIC "-//W3C//DTD SVG 1.1//EN" "http://www.w3.org/Graphics/SVG/1.1/DTD/svg11.dtd">
<!-- Creator: CorelDRAW -->
<svg xmlns="http://www.w3.org/2000/svg" xml:space="preserve" width="64.7786mm" height="106.088mm" version="1.1" style="shape-rendering:geometricPrecision; text-rendering:geometricPrecision; image-rendering:optimizeQuality; fill-rule:evenodd; clip-rule:evenodd"
viewBox="0 0 1074.87 1760.31"
 xmlns:xlink="http://www.w3.org/1999/xlink"
 xmlns:xodm="http://www.corel.com/coreldraw/odm/2003">
 <defs>
  <style type="text/css">
   <![CDATA[
    .fil0 {fill:black}
    .fil1 {fill:#FDFDFD}
    .fil2 {fill:white}
   ]]>
  </style>
 </defs>
 <g id="Camada_x0020_1">
  <metadata id="CorelCorpID_0Corel-Layer"/>
  <g id="_1683253741392">
   <path class="fil0" d="M139.23 858.48c-12.8,0.48 -25.94,-0.23 -38.24,-2.72 -15.13,-3.07 -26.74,-12.62 -32.68,-26.86 -14.81,-35.48 -16.57,-71.14 -7.57,-108.26 2.98,-12.28 6.98,-24.03 11.08,-35.95 1.93,-5.62 4.72,-12.97 5.62,-18.83 2.77,-18.02 -4.53,-31.43 -12.75,-46.82 -17.37,-32.56 -28.65,-62.07 -10.45,-97.9 5.21,-10.25 12.27,-18.05 17.59,-27.52 14.31,-25.51 15,-58.71 20.56,-87.02 5.12,-26.04 12.27,-52.89 24.36,-76.62 6.64,-13.04 13.74,-25.2 22.66,-36.81 4.19,-5.45 8.33,-10.3 11.89,-16.22 1.86,-3.09 4.02,-5.88 6.43,-8.36 -4.22,-7.95 -7.78,-15.86 -10.53,-23.14 -21.54,-56.92 -10.59,-115.13 27.2,-162.12 19.63,-24.41 52.44,-51.18 85.76,-59.96l-0 -0 1.35 -0.34 0.91 -0.22c109.87,-26.75 316.36,-41.21 457.22,22.13 125.48,47.79 329.48,182.69 306.69,552.41 0.7,10.48 -2,20.3 -7.51,28.38 3.09,8.18 5.42,16.85 6.98,25.82 5.88,33.81 1.76,73.38 -8.82,105.89 -14.19,43.64 -33.69,72.63 -62.39,98.11 2.24,5.15 3.5,10.44 3.79,15.72 2.5,5.15 3.98,10.86 4.39,17.01 0.13,2.04 0.17,4.03 0.13,5.98 1.75,3.84 2.98,8.01 3.64,12.43l15.12 100.41c3.58,-0.53 7.29,-0.65 11.06,-0.3 20.87,1.92 37.23,17.26 40.49,37.96 2.63,16.72 -0.41,34.79 -5.98,52.27 2.86,3.16 5.25,6.69 7.1,10.5 1.44,0.16 2.88,0.39 4.32,0.68 20.42,4.22 34.92,21.12 35.97,41.94 4.01,78.99 -42.97,155.21 -88.87,215.86 -22.85,30.2 -47.43,58.96 -71.95,87.8 -18.83,22.15 -39.02,45.27 -55.4,69.26 -6.05,8.86 -10.88,17.75 -18.21,25.85 -13.63,15.05 -34.7,19.19 -53.01,10.42 -20.11,-9.64 -33.57,-17.16 -50.14,-32.52 -0.64,-0.59 -1.17,-1.12 -1.78,-1.74l-46.84 -48.49c-0.55,-0.57 -1,-1.07 -1.52,-1.66 -2.82,-3.22 -8.91,-10.1 -13.25,-13.36 -13.74,-1.11 -22.49,-2.14 -35.12,-9.4 -1.74,7.11 -3.89,13.64 -6.48,19.35 -5.26,11.62 -14.49,20.01 -25.8,23.98 -5.92,18.54 -22.83,31.14 -42.72,31.26 -0.33,0 -0.66,0 -0.99,-0 -2.08,4.1 -4.12,8.23 -5.82,12.14 3.38,6.11 5.36,13.1 5.62,20.57 0.7,20.93 -12.45,39.06 -32.56,44.89 -11.15,3.23 -22.14,3.2 -32.01,0.41 -1.27,3.12 -2.61,6.21 -4.04,9.23 -14.7,31.26 -42.59,57.46 -78.06,50.64 -5.55,14.96 -18.17,25.56 -34.33,28.43 -14.71,2.62 -28.59,-1.6 -39.55,-10.35 -1.02,0.07 -2.02,0.1 -3.03,0.1 -4.56,14.69 -11.67,30.39 -22.86,52.41 -9.97,19.64 -32.07,29.12 -53.18,22.83 -8.73,-2.6 -16.12,-7.56 -21.62,-14.02 -2.3,-0.01 -4.6,-0.21 -6.87,-0.58 -2.28,0.45 -4.62,0.73 -7.01,0.84 -8.81,10.69 -21.88,16.59 -36.38,16.03 -18.09,-0.7 -33.18,-11.26 -40.04,-28.02 -2.46,-6.01 -3.67,-13.94 -4.03,-22.81 -4.65,0.55 -9.47,0.39 -14.31,-0.56 -21.14,-4.16 -36.09,-22.05 -36.43,-43.59 -0.16,-9.79 -2.7,-20.09 -5.01,-29.72 -18.77,-2.91 -34.47,-15.84 -42.15,-34.43 -3.69,-8.94 -5.4,-18.54 -6,-28.15 -0.18,-2.94 -0.31,-5.78 -0.36,-8.54 -11.44,-5.26 -20.45,-15.28 -24.29,-28.22 -8.61,-29.01 1.23,-60.77 16.14,-86.89 -1.13,-1.75 -2.17,-3.6 -3.1,-5.55 -3.04,-6.37 -4.59,-13.08 -5.28,-20.06 -0.32,-3.2 -0.48,-6.53 -0.49,-9.83 -3.65,-5.76 -6.05,-12.33 -7.09,-19.49 -0.24,-1.64 -0.46,-3.26 -0.65,-4.87 -8.37,-7.29 -14.43,-17.59 -16.67,-29.74 -1.64,-8.91 -1.24,-18.1 -0.1,-27.05 1.11,-8.78 2.92,-17.8 5.13,-26.38 0.33,-1.3 0.66,-2.36 1.1,-3.63 5.78,-16.53 11.78,-29.32 18.36,-40.11 -10.84,-7.95 -17.87,-20.62 -18.33,-35 -0.71,-22.5 14.91,-41.8 36.98,-45.84 -0,-0.02 -0,-0.04 -0,-0.05 -5.46,-6.61 -9.05,-14.85 -10.05,-24 -4.76,-43.56 40.47,-110.41 80.63,-128.29 -7.82,-6.21 -14.33,-14.5 -19.02,-23.88 -7.3,-14.61 -11.02,-31.77 -11.51,-48.04 -1.28,-42.42 18.77,-79.18 54.95,-99.05z"/>
   <g>
    <path class="fil1" d="M438.22 279.05c10.75,-9.25 27.2,-19.12 35.68,-27.89 -11.54,3.49 -26,9.99 -38.59,14.38 -15.13,5.28 -25.15,11.19 -38.33,16.42l2.27 28.29c-11.21,5.39 -28.26,16.69 -31.11,30.07 -9.67,45.4 -4,17.15 -15.68,46.68 59.35,14.84 43.5,-12.23 66.62,-13.68 22.14,-1.4 39.73,12.8 61.99,-22.61 7.25,-0.02 24.99,0.85 31.06,-0.35 6.98,-1.38 14.48,-8.63 17.25,-15.02 4.81,-11.06 2.26,-10.54 14.48,-16.06 6.22,-2.81 17.1,-7.42 23.45,-9.11 -12.04,14.19 -23.33,8.9 -32.54,30.41 -8.62,20.13 -22.92,15.89 -46.72,18.5 -18.49,2.02 -18.51,23.7 -38.29,24.47 -39.57,1.53 -24.65,0.27 -48.77,15.95 1.36,5.92 3.01,8.25 5.01,15.29 1.74,6.14 3.06,10.95 4.85,15.4 5.76,14.36 13.55,10.67 25.08,17.4 7.75,4.52 4.34,4.14 8.11,12.33 4.82,10.46 5.28,4.57 10.74,11.49 5.79,7.35 4.08,13.59 10.96,19.35l6.81 7.1c-25.76,-9.65 -12.14,-11.56 -21.56,-24.66 -3.65,-5.07 -6.03,-2.6 -10.98,-11.35 -5.29,-9.36 -0.33,-7.29 -11.14,-11.17 -28.59,-10.26 -29.39,-4.99 -40.25,-49.27 -8.73,-0.98 -39.18,-6.2 -44.64,-3.87 -12.71,5.42 -18.29,18.09 -22.72,29.87 -12.48,33.19 -30.81,16.73 -43.71,35.45 -2.39,3.47 -2.96,5.23 -5.85,8.37 -3.84,4.17 -3.68,2.38 -7.02,7.16l21.14 -7.29c-0.77,5.4 -19.91,18.7 -24.11,22.51 -11.42,10.39 -12.5,12.8 -16.12,31 -0.42,-0.48 -1.01,-1.84 -1.19,-1.5 -0.18,0.33 -0.88,-1.1 -1.11,-1.52 -2.15,-3.98 -0.39,1.1 -2.3,-4.9 -2.91,-9.13 -1.61,-19.77 2.08,-27.3 8.65,-17.64 10.14,-12.44 24.95,-21.95 12.75,-8.2 0.88,-12.78 24.88,-21.81 12.73,-4.79 17.22,-11.51 21.8,-24.7 10.35,-29.79 27.41,-23.78 37.96,-55.44 11.68,-35.08 -1.25,-37.29 33.9,-59.38 0.23,-7.42 -1.1,-13.72 -1.2,-18.94 -0.16,-8.39 2.73,-6.89 6.84,-13.33 -10.81,1.74 -35.46,14.13 -47.83,18.58 -16.62,5.99 -34.48,12.13 -51.09,16.14 6.97,-9.15 19.23,-14.68 27.33,-22.68 -11.59,1.97 -30.83,12.26 -41.7,18.03 -21.32,11.31 -14.47,14.03 -44.43,6.49 -13.47,3.05 11.13,-5.53 -4.86,2.87 -11.85,6.22 -29.27,-9.75 -39.64,-13.04 -11.29,18.74 -17.09,18.99 -33,50.22 -9.5,18.65 -15.73,41.62 -20.29,64.83 -7.44,37.85 -6.5,66.53 -25.49,100.4 -5.38,9.59 -12.14,16.89 -16.71,25.89 -19.87,39.11 37.42,67.03 27.57,131.14 -4.94,32.14 -37.55,77.75 -12.08,138.78 10.98,2.23 24.35,2.39 36.55,1.26l-23.51 -17.62c24.96,0.08 27.68,8.57 44.39,14.57 -6.56,-25.43 -14.96,-22.81 -30.38,-36.78 13.85,1.99 20.5,12.99 30.38,18.98l5.85 -54.24c-11.68,4.84 -18.7,11.29 -34.6,5.25 -15.04,-5.71 -15.93,-9.83 -15.88,-27.91 0.36,0.44 0.86,0.57 1.03,1.36 1.56,7.08 0.29,0.54 2.02,2.63 3.81,4.6 9.56,10.4 14.92,5.17l-0.79 -18.18c-0.41,-9.15 1.74,-14.91 2.9,-22.54 -3.69,4.01 -2.88,2.8 -5.13,8.76 -4.94,13.05 1.26,2.65 -4.88,12.19 -0.85,-19.56 2.56,-37.18 2.24,-55.42 -0.2,-11.34 -9.53,-34.77 -14.4,-44.51 -3.37,-0.92 0.5,-2.35 -3.41,6.28 -3.96,-14.37 -21.94,-38.83 -14.34,-54.52 10.08,-20.83 50.29,-5.08 60.01,-10.4 -5.23,-3.6 -10.03,-6.17 -17.02,-9.01l-13.47 -4.82c-0.54,-0.19 -1.08,-0.37 -1.61,-0.56l-4.88 -1.94c50.29,-1.66 63.87,26.01 90.19,44.28 -2.55,-16.03 -12.22,-28.65 -14.42,-45.28 0.39,0.41 0.94,0.5 1.11,1.3 1.32,5.95 25.18,32.9 29.14,37.76 -2.84,-16.86 -11.88,-60.98 -2.04,-76.52 3.63,36.46 2.63,65.71 33.96,77.91 9.82,3.82 17.17,9.75 27.25,11.12 -9.09,-13.15 -25.48,-16.51 -32.42,-32.95 11.91,5.43 16.83,15.4 36.22,14.03 26.5,-1.87 47.14,-40.66 94.96,-47.21 1.77,-0.24 3.33,-0.55 5.19,-0.43l6.84 1.77c-18.26,4.32 -38.92,17.35 -49.44,28.76 9.36,-2.98 17.83,-7.35 28.09,-10.64 9.73,-3.12 20.21,-5.74 30.77,-7.84 20.78,-4.12 49.51,-2.34 64.46,7.45l-47.78 -1.78c9.45,5.65 31.59,5.12 44.95,7.28 16.85,2.72 27.68,6.87 41.22,13.37 17.73,8.51 52.91,35.36 54.63,53.95 -12.43,-7.69 -21.64,-18.59 -37.27,-26.79 9.89,19.69 24.58,38.22 26.27,63.91 0.58,8.74 0.78,22.03 -4.79,28.72 -0.13,-11.26 -1.91,-28.34 -9.52,-34.76 11.7,47.48 -25.87,101.28 -75.65,103.49 -46.27,2.05 -81.92,-20.73 -104.63,-55.64 -3.3,-5.06 -5.02,-10.3 -9.01,-15.09 3.33,19.21 19.24,37.52 33.25,49.73 5.67,4.94 11.13,8.12 15.28,12.68 -80.47,-18.21 -70.52,-80.67 -83.04,-117.14l-1.12 2.68c-0.55,2.39 -0.64,1.92 -0.89,5.02 -0.23,2.78 -0.02,9.34 0.12,12.32 0.95,20.64 8.22,43.2 12.54,61.01 -2.19,-2 -1.06,-0.65 -3.23,-3.57l-7.89 -14.54c-8.7,-17.79 -14.87,-35.39 -18.48,-54.53 -1.81,-9.62 0.65,-8.02 -5.31,-10.89 -0.03,14.7 -4.72,50.72 -9.52,62.33l-0.78 -51.78c-10.03,9.91 -15.01,47.48 -21.97,60.69 -1.94,-26.21 8.49,-56.16 9.81,-81.23 -7.05,-7 -25.51,-17.5 -39.49,-15.32 -5.7,66.78 -40.31,55.47 -47.26,84.74 -4.18,17.59 -0.28,24.93 -1,39.89 -0.65,13.62 -5.68,18.05 -5.45,38.81 0.19,16.86 -5.54,71.71 6.83,82.29 4.9,4.19 1.77,0.93 6.88,3.31 4.16,1.93 0.68,-0.02 4.12,2.18 10.48,6.71 4.49,2.45 18.61,1.45l7.76 10.61 6.62 -19.05c1.12,4.69 2.15,8.78 3.57,12.91 0.37,1.06 2.15,5.69 2.26,5.91 0.23,0.47 0.46,0.99 0.71,1.45l3.68 5.56 2.95 -15.05c4.72,3.48 7.13,9.46 9.86,13.1 1.64,-7.32 -5.4,-9.54 3.69,-9.52l2.4 0.47c9.59,1.01 17.01,2.64 23.51,-0.11 7.68,-3.25 12.05,-2.89 18.61,-0.24 35.56,-57.27 12.06,-43.15 16.14,-91.03 3.95,6.85 11.47,29.78 13.85,38.5 5.33,19.52 2.21,29.16 -3.98,44.52l6.01 4.06c5.07,2.28 1.65,1.07 8.13,2.06 28.85,4.45 47.13,18.02 69.88,35.67 8.93,6.93 15.86,14.49 24.44,18.9 -3.16,-16.86 -0.62,-29.3 5.84,-41.69 8.5,-16.3 13.65,-18.16 21.88,-29.06 -38.07,9.28 -31.77,12.33 -48.27,41.86 -8.51,-50.7 41.45,-62.05 81.09,-44.57 38.03,16.77 56.62,39.36 99.56,-0.77 34.16,-31.92 65.7,-16.34 109.41,-32.6 20.11,-7.48 74.05,-49.05 77.86,-65.46 -33.37,-24.98 -160.89,51.46 -179.18,-43.38 -2.94,-15.24 -4.27,-63.24 -1.76,-77.72 -5.14,0.88 -17.93,9.01 -29.15,11.3 9.08,-9.34 31.14,-19.62 21.38,-41.64 -9.79,-22.08 -77.87,-67.76 -61.06,-133.47l2.93 -6.94c3.66,8.24 4.14,37.15 7.66,48.88 3.96,13.2 12.43,26.74 20.3,35.4 -5.88,-35.9 -14.65,-50.42 -0.68,-91.86 4.32,-12.81 11.61,-26.12 17.71,-37.06 6.48,-11.62 13.04,-24.35 22.03,-33.84 -1.89,9.16 -5.53,16.03 -8.33,25.2 -18.7,61.37 -16.17,73.09 0.99,133.28 4.72,16.57 8.18,35.15 14.54,50.71 4.29,-23 -5.89,-46.6 -4.32,-63.25 8.29,12.43 12.24,32.02 15.47,49.87 4,22.11 1.66,44.11 4.74,64.24 10.46,-26.81 6.75,-55.13 12.48,-77.66 9.8,16.98 -3.27,93.49 0.34,102.43 6.15,-20.11 19.97,-59.22 21.9,-80.25 2.36,24.04 -7.5,69.8 -11.16,94.9 8.65,-10.64 17.09,-34.31 22.6,-40.32 -0.63,21.94 -7.66,39.72 -11.16,59.23l5.37 -6.31c2.25,-3.19 2.17,-3.48 3.75,-6.37 7.92,-14.53 11.77,-30.21 17.3,-45.17 1.28,28.68 -11.86,47.75 -18.03,69.33 6.33,-4.46 7.98,-8.24 12.53,-14.4l13.18 -14.99c-3.46,15.66 -10.61,26.55 -15.89,39.33 9,-4.99 12.85,-13.05 20.93,-17.93 -4.95,12.65 -12.1,22.15 -16.57,32.41 6.22,-4.13 10.72,-9.26 16.1,-14.96l15 -16.35c-2.75,18.38 -10.84,21.15 -17.18,32.85l21.22 -13.05c-2.33,7.16 -2.49,6.08 -5.98,11.21 15.02,-1.25 22.74,-4.24 40.23,-4.04 -4.51,-12.73 -11.4,-19.88 -16.7,-30.44 11.78,7.99 16.77,27.8 32.28,31.88 -0.34,-10.37 -11.13,-18.29 -15.72,-25.54 -8.2,-12.98 -6.79,-16.06 -17.59,-27.03 -8.62,-8.76 -8.85,-16.74 -16.18,-26.44 -6.99,-9.24 -14.26,-13.73 -19.1,-26.74 12.32,7.02 25.36,26.15 31.84,38.41 3.07,5.81 6.53,9.64 10.22,14.22 8.04,9.98 10.35,18.76 17.66,28.94 4.84,6.73 14.49,20.73 22.75,22.51 -7.08,-15.43 -16.14,-27.35 -23.36,-42.24 -7.38,-15.21 -18.06,-26.31 -27,-42.01 -7.9,-13.87 -41.97,-48.07 -53.78,-81.07l87.06 122.92c4.16,8.82 21.99,38.03 28.09,42.68 0.06,-19.27 -2.75,-17.67 -9.82,-30.58 -3.97,-7.24 -9.62,-19.64 -14.59,-25.98 -7.47,-9.51 -12.39,-8.87 -18.74,-21.86 -8.28,-16.94 -3.19,-12.1 -14.98,-25.63 -19.57,-22.45 -31.21,-48.4 -51.33,-70.37 -9.09,-9.93 -13.1,-11.37 -20.14,-22.55 -6.46,-10.25 -6.51,-18.57 -14.42,-25.99 -37.73,-35.36 -37.48,-26.58 -19.61,-82.78 7.82,-24.59 19.72,-71.13 30.81,-90.97l16.63 -24.45c-16.14,5.28 -33.29,7.97 -52.31,10.31 3.2,-5.68 0.51,-2.23 5.34,-6.25 0.72,-0.59 4.97,-3.23 6.09,-3.89 33.52,-19.63 73.09,-29.35 112.74,-33.39 27.58,-2.81 52.99,-3.32 81.04,-2.39 26.29,0.87 55.38,7.77 77.16,7.79 -43.88,-14.09 -124.47,-18.89 -174.71,-14.01 -56.9,5.52 -106.04,22.97 -153.48,40.25 2.63,-5.8 18.78,-16.21 25.17,-20.16 7.14,-4.4 25.02,-14.09 28.5,-17.86 -17.49,5.28 -34.69,11.53 -53.28,17.45 -20.05,6.38 -38.35,9.75 -58.66,15.33l7.82 -7.39c35.36,-24.58 75.1,-42.22 117.38,-53.09 17.85,-4.59 33.14,-5.84 51.47,-9.58 -17.82,-2.91 -57.83,2.19 -75.01,6.4 -43.6,10.7 -75.81,33.03 -117.68,48.74 -11.78,4.42 -55.64,17.43 -67.53,16.08zm187.28 522.45c14.12,-4.88 19.45,-7.83 36.86,-10.52 9.05,-1.4 34.79,-3.39 40.78,-5.95 10.26,-4.38 20.25,-12.93 27.6,-19.14 6.15,-5.19 22.21,-18.89 25.56,-23.54l-67.06 26.75c-23.32,9.13 -50.76,16.03 -63.74,32.4zm-257.12 42.6c14.32,-15.61 15.65,-26.46 47.14,-40.21 26.79,-11.7 32.68,-20.54 70.6,-18.37 -1.88,-1.83 -0.67,-1.13 -3.68,-2.79 -44.73,-24.65 -116.21,-0.39 -114.06,61.36zm-178.64 -75.27c0.01,29.62 -10.5,63.07 24.4,59.15 21.56,-2.42 12.23,-35.5 25.59,-46.26 -5.23,17.34 2.08,41.7 12.77,48.28 20.85,12.85 79.74,0.87 46.55,-60.69 -16.41,-30.44 -43.52,-56.28 -48.41,-83.54 -2.2,-12.26 -3.85,-14.69 -13.08,-19.48 -53.25,-27.66 -41.45,26.21 -41.6,41.75 -0.12,12.86 -2.45,16.45 -4.79,27.65 -2.15,10.29 -1.42,21.99 -1.42,33.15z"/>
    <path class="fil1" d="M841.89 604.98l-6.59 -6.94c-2.32,-3.23 -2.21,-3.88 -4.98,-7.12 -7.79,-9.11 -17.19,-15.44 -23.36,-25.34 -5.57,-8.93 -7.37,-7.67 -12.43,-13.96 -8.69,-10.79 -7.81,-21.37 -16.64,-32.02 -25.35,-30.56 -22.39,-20.05 -40.06,-59.34 -4.83,-10.73 -49.81,-66.84 -62.75,-79.3l-5.21 -4.29c12.2,26.76 44.6,49.67 59.76,91.8 8.68,24.11 29.64,37.25 41.7,59.79 5.84,10.91 8.56,24.35 16.05,34.59 8,10.93 13.83,17.8 24.65,26.03 8.1,6.16 18,18.96 20.13,33.24 -7.13,-3.94 -0.29,0.66 -4.58,-3.44 -7.54,-7.21 -12.47,-16.99 -19.34,-23.86 -4.48,-4.48 -8.17,-7.47 -11.93,-12.43 -10.88,-14.37 -21.24,-27.46 -29.19,-43.94 -11.79,-24.45 -29.33,-33.31 -41.3,-58.02 -6.81,-14.06 -5.72,-23.02 -16.11,-34.62 -10.11,-11.29 -39.6,-40.63 -51.78,-48.52 6.75,14.97 39.62,37.35 53.19,71.52 11.73,29.57 5.42,19.57 29.03,48.03 21.14,25.49 15,25.06 27.28,45.79 4.78,8.08 8.32,7.07 13.29,13.05 9.82,11.84 1.05,10.04 21.5,29.19 8.78,8.22 14.93,18.66 18.79,32.88 -11.13,-7.49 -12.26,-18.31 -21.03,-26.59 -12.41,-11.72 -11.94,-12.03 -20.35,-26.35 -6.73,-11.46 -14.11,-14.58 -21.17,-25.37 -7.93,-12.12 -8.11,-19.27 -17.67,-31.07 -13.78,-16.99 -28.76,-31.27 -38.29,-55.08 -4.99,-12.47 -9.73,-19.73 -18.61,-28.08l-25.97 -23.64c4.75,13.16 13.23,18.75 21.88,27.71 15.79,16.37 15.64,40.07 35.6,63.83 29.96,35.66 23.78,40.22 51.76,72.01 5.34,6.06 5.07,10.36 9.74,16.74 8.51,11.64 18.79,12.24 23.19,27.5l7.07 17.34c1.82,4.54 6.04,13.74 1.99,19.89l-10.36 -25.77c-2.09,-4.18 -2.08,-6.3 -4.01,-10.36 -3.24,-6.83 -17.17,-17.86 -23.3,-27.32 -4.15,-6.39 -4.26,-10.94 -8.06,-16.28 -3.13,-4.41 -9.23,-8.6 -13.4,-12.93 -15.73,-16.33 -17.6,-30.65 -43.7,-57.7 -20.47,-21.21 -8.49,-43.92 -39.08,-62.42 -12.37,-7.48 -4.69,-1.63 -12.71,-11.7l-14.95 -12.88c4.95,15.3 22.61,25.79 31.29,39.22 8.65,13.38 14.13,35.41 22.42,46.59l31.87 37.08c5.94,7.29 7.84,14.5 12.75,21.71 4.36,6.39 10.53,12.86 16,18.52 15.54,16.06 -0.61,11.51 30.11,38.81 16.44,14.61 22.4,58.79 20.34,82.46 -1.17,13.56 0.88,18.07 0.43,30.84 -0.93,26.36 -4.19,26.6 -1.87,62.69 4.69,-4.13 5.78,-11.1 8.23,-17.67 3.37,-9.08 5.41,-9.85 8.94,-15.71 -1.05,21.9 -19.91,48.67 -0.53,75.6 17.05,23.69 45.95,14.58 67.9,0.16 42.04,-27.63 68.88,-51.63 86.59,-106.09 15.97,-49.12 16.03,-129.94 -37.82,-136.35 -41.57,-4.95 -74.42,22.42 -95.01,50.11 -7.01,9.42 -10.66,21.49 -17.46,29.66 -11.99,-64.96 69.4,-124.82 135.4,-100.88 10.67,3.87 15.3,9.27 22.13,14.34 -2.98,-44.57 -57.13,-97.9 -80.49,-134.59 -9.73,-15.28 -26.8,-37.7 -31.02,-54.2 -4.04,-15.83 -6.88,-17.92 -15.87,-27.7 3.77,9.36 7.99,17.02 11.17,26.49 21.75,64.88 89.5,133.55 100.13,170.41l-40.58 -45.49c-5.74,-10.3 -52.04,-71.82 -70.12,-100.31 -6.45,-10.17 -6.99,-19.45 -12.37,-30.26 -5.25,-10.53 -8.97,-18.02 -12.9,-30.7 -5.62,12.25 39.8,98.17 44.92,106.26 19.82,31.28 45.79,58.56 61.81,93.63 -12.18,-8.16 -41.41,-47.1 -53.12,-61.69 -31.98,-39.84 -36.62,-51.88 -58.99,-97.27l-17.99 -23.83c3.15,9.43 8.03,14.77 12.38,23.38 12.28,24.33 18.53,53.91 34.39,75.16 10.85,14.54 58.65,69.76 60.9,81.61 -14.68,-9.75 -28.91,-25.72 -40.07,-39.69 -13.5,-16.89 -24.9,-27.7 -36.76,-44.33 -13.61,-19.09 -4.36,-30.56 -26.83,-54.31 -6.45,-6.81 -11.37,-14.96 -15.95,-24.76 -3.96,-8.49 -7.85,-24.05 -14.1,-28.62 18.55,53.94 27.96,54.24 37.17,76.71 4.9,11.94 4.37,18.21 7.67,30.98 6.27,24.28 53.47,54.38 64.25,89.11l-40.23 -40.2c-24.3,-22.41 -28.55,-46.45 -44.34,-73.34 -4.71,-8.02 -10.52,-15.99 -15.98,-24.64 -9.36,-14.83 -21.42,-34.04 -29.48,-50.03 10.09,37.62 35.11,68.49 51.68,102.84 13.81,28.61 8.45,33.12 27.47,49.67 11.36,9.89 27.3,26.78 32.57,44.6 -8.08,-2.67 -15.74,-15.2 -21.31,-21.38 -43.46,-48.13 -30.14,-48.76 -53.6,-80.15 -19.58,-26.21 -19.61,-33.84 -34.23,-55.14 -9.28,-13.53 -24.21,-47.58 -34.08,-55.27 4.17,9.79 10.23,16.27 14.68,28.06 6.19,16.38 6.5,16.16 14.44,30.15 6,10.58 7.1,19.55 13.59,30.94 10.19,17.87 27.81,33.46 34.3,53.16 5.99,18.18 1.4,14.86 14.52,29.93 6.55,7.52 13.24,17.92 19.62,25.19 7.04,8.03 17.52,13.59 18.26,25.02 -7.92,-5.26 -17.08,-16.22 -24.48,-24.91 -4.19,-4.91 -7.41,-9.59 -11.42,-15.04 -4.59,-6.25 -7.74,-7.9 -12.84,-13.55 -10.47,-11.59 -5.88,-27.6 -40.92,-62.44 -15.45,-15.36 -7.39,-16.61 -16.2,-34.63 -7.53,-15.41 -14.28,-18.61 -23.49,-29.23 -14.06,-16.19 -18.68,-40.18 -42.48,-63.63 2.99,8.31 14.27,23.21 19.88,31.41 7.57,11.07 11.1,22.26 17.67,33.1 6.77,11.16 14.17,18.27 20.48,30.33 7.56,14.45 5.34,25.29 15.66,34.95 12.91,12.09 12.51,13.86 21.67,29.07 3.36,5.57 6.56,8.28 9.93,14.48 11.65,21.49 2.76,18.18 28.59,48.51 9.05,10.63 19.12,14.03 23.05,30.85zm41.91 95.31c6.81,-10.66 18.89,-18.27 31.93,-6.04 10,9.38 8.75,22.62 14.08,34.28 0.12,0.26 0.38,0.87 0.68,1.23 6.52,-23.46 -3.64,-49.6 -11.91,-64.28 26.59,-1.95 22.15,4.28 25.18,29.05 5.52,45.17 -1.95,74.67 -34.45,103.87 -5.67,5.09 -11.43,7.93 -15.63,13.04 22.79,-3.33 44.94,-25.21 53.56,-42.15 11.83,-23.24 17.44,-49.19 18.16,-79.61 0.82,-34.47 -0.8,-62.05 -38.95,-59.02 -33.09,2.63 -66.86,36.93 -71.95,72.42 -2.83,19.69 7.18,23.15 9.02,37.42 3.52,27.38 -23.03,31.33 -22.37,50.54 0.29,8.6 4.38,12 13.54,9.97 10.98,-2.45 16.64,-15.69 28.66,-20.47 18.11,-7.2 19.88,-4.45 27.93,-20.93 7,-14.32 16.05,-61.4 -27.48,-59.33z"/>
    <path class="fil1" d="M692.42 1375.56c5.83,5.89 11.79,8.85 12.44,20.29 -12.12,9.84 -34.16,7.14 -45.32,16.23 19.49,12.04 24.14,-9.52 61.37,33.1l46.84 48.49c13.33,12.36 21.73,16.66 38.96,24.92 4.54,-5.01 10.64,-15.52 14.39,-21.01 58.9,-86.27 214.65,-222.28 208.42,-345.17 -3.62,7.34 -4.7,17.96 -6.96,27.02 -18.93,75.87 -106.17,172.08 -157.98,229.59l-33.87 37.23c-8.69,9.3 -25.37,29.92 -34.13,36.62 6.04,-22.83 89.83,-118.48 110.72,-144.7 28.61,-35.92 83.6,-118.27 91.08,-162.68 -12.05,20.19 -10.28,24.26 -29.99,51.27 -25.34,34.74 -87.35,113.09 -126.83,124.11 3.83,-6 17.4,-16.25 23.39,-22.63 18.32,-19.5 46.67,-55.36 62.4,-77.52 20.81,-29.33 57.88,-87.79 66.31,-123.42l-14.87 24.64c-21.12,32.34 -24.6,36.84 -49.74,67.92 -14.16,17.51 -61.46,67.2 -80.09,76.39 2.41,-4.53 67.21,-87.82 81.69,-111.2 14.3,-23.09 63.5,-98.09 57.97,-133.31 -16.94,48.03 -18.22,54.11 -54.42,98.22 -85.16,103.76 -98.13,111.57 -194.3,193.35 -34,28.91 -27.79,19.49 -47.47,32.24z"/>
    <path class="fil1" d="M825.06 893.8c6.47,51.04 18.22,67 11.86,134.7 -4.06,43.2 -18.05,81.62 -33.13,113.74 26.18,-15.41 45.01,-83.78 51.99,-113.22l3.64 -9.53c-0.27,30.82 -15.82,78.8 -27.94,100.68 -20.44,36.92 -38.97,50.03 -41.21,54.27 -1.19,2.26 -7.13,22.45 -7.81,25.03 8.09,-5.11 14.2,-18.82 24.72,-25.05 -5.4,15.51 -21.82,36.54 -30.54,53.32 -4.93,9.49 -8.85,17.13 -13.93,26.66 -5.16,9.68 -11.38,18.26 -15.56,27.78 22.63,-14.1 110.51,-154.48 111.89,-155.86 -5.55,33.69 -82.66,129.79 -97.76,156.66 1.12,-1.64 30.29,-29.48 36,-34.44 45.6,-39.66 105.4,-103.51 137.38,-154.9 18.77,-30.17 14.35,-18.72 6.61,-51.61l-19.37 -128.64c-10.69,7.28 -25.16,25.7 -42.32,37.18 2.6,-6.03 1.1,-3.17 5.07,-8.42 11.9,-15.74 34.04,-36.09 33.07,-50.96 -7.1,2.05 -14.02,18.27 -36.59,29.83l32.02 -47.6c-12.72,-1.2 -34.12,44.33 -88.08,20.38z"/>
    <path class="fil1" d="M226.45 284c-12.53,-26.2 -37.12,-56.88 -31.89,-101.56 4.97,10.63 2.19,23.02 12.38,47.79 0.9,2.19 1.94,5.16 3.06,7.11l1.7 2.63c2.28,3.05 0.64,1.24 3.39,3.55 -13.26,-40.86 -19.49,-70.16 0.14,-110.74 14.22,-29.39 37.37,-53.37 67.11,-67.24 -34.1,-0.62 -128.85,68.81 -92.87,163.9 7.3,19.3 23.37,46.09 37,54.56z"/>
    <path class="fil1" d="M321.36 247.38c14.08,-9.37 30.52,-31.42 47.26,-44.44 42.02,-32.72 91.93,-68.69 145.59,-81.8 12.61,-3.08 30.11,-3.01 40.48,-5.71 -14.81,-9.08 -64.24,0.47 -81.26,5.59 -43.37,13.02 -83.43,40.01 -112.44,72.28 -12.08,13.44 -31.34,36.43 -39.61,54.09z"/>
    <path class="fil1" d="M247.99 273.85c-3.28,-50.89 -10.46,-92.34 26.01,-143.25 22.51,-31.43 54.83,-51.56 91.76,-62.55l17.37 -5.72c-55.93,2.41 -102.04,33.12 -125.67,63.85 -34.06,44.3 -29.88,93.45 -9.47,147.67z"/>
    <path class="fil1" d="M292.65 268.72c-1.49,-14.12 19.48,-51.83 26.09,-62.93 27.97,-46.93 76.76,-82.58 128.07,-101.32l27.75 -6.75c1.13,-0.2 4.15,-0.74 5.18,-1 0.55,-0.13 1.16,-0.32 1.64,-0.45 0.48,-0.13 1.22,-0.4 1.6,-0.51 0.38,-0.11 1.08,-0.29 1.58,-0.54 -61.01,-9.67 -103.58,21.23 -131.91,49.13 -28.31,27.88 -63.5,81.85 -60.01,124.38z"/>
    <path class="fil1" d="M364.21 251.03c5.43,-3.69 14.74,-13.82 21.09,-19.39 7.88,-6.92 13.66,-11.85 21.85,-18.58 44.73,-36.75 115.14,-69.58 179.1,-66.97 -13.77,-7.45 -64.17,-3.82 -77.19,-1.59 -37.52,6.44 -83.57,32.88 -109.22,57.17 -8.62,8.16 -30.91,35.69 -35.62,49.36z"/>
    <path class="fil1" d="M726.46 184.52c-7.77,-15.28 -48.61,-51.96 -64.28,-64.53 -33.12,-26.56 -100.52,-62.69 -144.19,-69.54 7.69,6.19 18.39,9.83 28.35,14.84l81.17 46.69c37.02,23.36 41.63,24.29 75.18,52.64 8.22,6.95 15.64,15.38 23.78,19.9z"/>
    <path class="fil1" d="M780.64 197.52c-4.71,-12.11 -26.65,-37.34 -34.67,-45.74 -33.83,-35.45 -97.58,-88.35 -142.52,-97.35 6.19,5.04 32.29,19.2 48.12,31.42l129.06 111.66z"/>
    <path class="fil1" d="M811.46 195.4c-15.68,-44.64 -95.37,-119.7 -145.31,-131.23l36.59 31.43c12.92,10.33 25.1,20.35 38.73,30.29 15.77,11.5 48.22,42.35 60.79,58.82l9.2 10.69z"/>
    <path class="fil1" d="M269.59 227.04c7.59,-21.45 3.04,-22.5 19.12,-49.2 26.67,-44.27 60.64,-83.25 118.96,-95.14 -22.96,-7.74 -75.16,18.97 -97.37,41.62 -17.28,17.62 -44.12,66.2 -40.72,102.73z"/>
    <g>
     <path class="fil1" d="M660.57 923.34c-3.34,-5.72 -0.43,-20.35 0.3,-30.7 0.76,-10.79 2.95,-20.53 0.72,-31.44 -5.59,16.05 -15.05,83.39 -22.8,97.51 3.48,-47.01 4.01,-52.65 3.47,-99.51 -4.76,8.54 -10.25,55.89 -11.85,66.04 -3.66,23.31 -5.65,50.3 -23.07,56.76 4.89,-19.73 12.19,-34.83 12.69,-58.87 0.34,-16.67 0.01,-50.53 -5.41,-64.26l-0.35 68.51 -14.54 -48.81c3.14,45.9 4.88,59.97 -6.44,109.01 -3.23,14 -6.53,15.15 1.34,25.7 4.35,5.83 9.65,15.17 14.94,19.19 0.3,-12.2 9.56,-45.39 18.6,-55.07 -1.12,11.09 -7.84,39.25 5.9,45.3 -5.02,-16.32 6.45,-50.19 14.45,-60.85 -0.32,10.05 -9.13,33.98 10.12,48.75 -2.13,-12.11 -5.94,-18.83 -4.39,-32.73 0.46,-4.15 5.04,-26.71 6.35,-29.21 3.03,6.93 -0.3,22.32 3.85,33.71 1.51,4.16 1.33,2.99 2.16,4.37 -0.17,-48.45 8.52,-76.07 20.78,-122.13 3.09,-11.61 8.09,-22.85 10.21,-32.72 -11.03,7.55 -33.55,75.2 -37.04,91.43z"/>
     <path class="fil1" d="M304.16 1083.36l45.64 34.13c-6.02,-10.4 -18.82,-17.23 -21.85,-28.42 25.1,-15.83 33.65,12.14 62.46,20.52 -8.65,-12.42 -21.77,-17.73 -29.88,-28.26 2.67,-6.36 35.31,-28.48 42.7,-34.4 -28.68,0.34 -29.14,17.68 -53.64,23.08 2.61,-4.2 -0.09,-0.9 4.24,-5.3l12.95 -11.37c3.29,-3.16 10.29,-9.08 11.14,-13.4 1.85,-9.35 -0.85,-5.92 -1.7,-7.05 -11.41,17.3 -29.77,32.7 -49.18,41.66 -3.7,1.71 -8.2,3.5 -11.61,4.63l-11.26 4.18z"/>
     <path class="fil1" d="M204.41 1079.22c-3.73,-10.76 -9.8,-15.35 -13.45,-24.48 25.45,12.86 33.31,14.56 67.87,14.52 13.15,-0.01 27.03,1.12 39.98,-0.87 13,-2 22.72,-7.04 32.87,-9.29 -5.48,7.99 -6,3.63 -12.08,10.03 17.49,-1.52 37.56,-14.52 43.22,-27.1l-20.59 11.65c2.33,-4.84 4.68,-6.77 9.78,-11.01 11.33,-9.44 9.31,-5.16 10.1,-12.08 -7.16,-5.2 -4.78,-4.09 -14.76,-4.19l-2.85 10.31c-0.76,-0.55 -1.06,-1.85 -1.22,-1.5 -0.88,1.97 1.48,-6.24 -10.46,-4.13 -0.38,0.07 -5.82,1.77 -6.48,2.04 -8.93,3.66 -6.26,2.26 -12.53,24.09 -0.37,-0.47 -0.65,-1.77 -0.72,-1.5l-1.58 -6.84c-0.52,-4.38 0.09,-5.96 -0.91,-11.18l-30.88 1.69 -3.19 19.2 -3.2 -18.47 -32.7 0.68 -0.41 13.87 -5.61 -15.74 -28.37 0.51 2.63 19.53c-9.3,-9.21 0.83,-24.74 -26.98,-32.28 -0.06,22.93 10.24,43.38 22.54,52.55z"/>
     <g>
      <path class="fil1" d="M236.72 1020.23c11.41,4 26.55,3.75 39.81,1.68 2.96,-20.95 -3.17,-39.56 -4.72,-36.63l-13.68 -4.66c-5.63,-1.25 -13.14,-2.46 -19.01,-2.24 -3.45,14.03 -2.75,26.41 -2.39,41.84z"/>
      <path class="fil1" d="M230.28 1018.54l-0.74 -33.8c-3.64,-16.36 -26.06,-10.4 -27.5,-8.93 -3.79,3.84 -2.43,30.25 -0.43,34.94 3.16,7.4 20.82,12.08 28.67,7.79z"/>
      <path class="fil1" d="M283.2 1020.45c12.15,4.08 28.35,1.49 38.35,-1.97l0.15 -16.3c-8.42,-5.42 -27.31,-12.05 -38.1,-13.83 -0.55,10.58 -2.36,21.82 -0.41,32.09z"/>
     </g>
    </g>
    <path class="fil1" d="M471.58 930.91c-4.43,-30 -11.96,-42.2 0.62,-74.56 -12.02,6.57 -27.61,21.34 -31.06,38.37 -2.35,11.58 4.4,14.01 11.26,19.47 6.99,5.57 12.78,11.92 19.17,16.72z"/>
    <path class="fil2" d="M133.87 1070.41c-16.04,15.72 -48.33,63.43 -54.79,82.42 -2.49,-22.79 32.05,-73.29 54.79,-82.42zm348.74 -110.67c19.92,25.91 34.09,50.92 18.73,82.95 -2.63,-32.56 -9.59,-51.06 -18.73,-82.95zm-132.46 -65.56c16.58,10.95 80.64,56.31 64.67,85.63 -9.49,-33.56 -38.14,-51.61 -64.67,-85.63zm3.6 -17.26c43.09,20.93 131.37,75.81 130.38,126.54l-3.92 32.95 -2.37 -33.07c-4.25,-37.6 -90.39,-101.86 -124.09,-126.41zm-184.61 17.3c-22.38,25.22 -45.56,69.25 -20.97,101.25 -15.23,5.3 -41.74,-76.38 20.97,-101.25zm126.54 -10.97c66.27,72.58 48.69,89.48 149.59,122.61 -20.34,0.77 -58.6,-15.38 -75.49,-26.56 -26.72,-17.7 -56.31,-68.09 -74.11,-96.05zm-10.71 9.13c4.03,4.67 23.06,24.26 21.82,31.74 -1.34,-0.19 -0.76,0.03 -1.78,-0.58l0.17 0.18c-19.16,-17.28 -12.44,-6.82 -20.21,-31.35zm-23.81 -0.4c23.04,49.95 34.98,72.02 82.87,101.77l-0.06 -0.02c0.95,0.54 0.5,0.21 1.31,1.03 -0.56,0.11 -1.14,0.3 -1.72,0.07 -49.83,-19.43 -71.59,-51.61 -82.4,-102.85zm-21.82 9.52c14.15,34.64 14.04,29.97 34.52,57.14 -2.4,0.11 -1.67,0.35 -4.11,-0.85 -24.18,-11.88 -28.96,-32.84 -30.41,-56.29zm-17.06 6.35c4.63,32.08 4.64,33.35 21.43,58.33 -26.05,-15.58 -26.73,-29.84 -21.43,-58.33zm-19.44 34.52c-3.37,17.08 0.68,9.7 -12.7,21.82 4.63,-17.09 0.28,-9.88 12.7,-21.82zm-0.4 -44.44c-6.32,27.05 -10.77,41.53 -32.93,60.71 -2.64,-1.82 29.8,-55.52 32.93,-60.71zm548.85 -84.14c9.81,24.97 13.44,35.21 18.96,61.73 -15.87,-25.87 -18.15,-31.27 -18.96,-61.73zm-61.73 105.24c15.85,39.68 12.71,27.5 31.59,59.39 0.58,0.97 13.5,25.64 16.38,33.95 -4.99,-3.89 -4.74,-4.15 -8.14,-9.47 -28.29,-44.31 -29.59,-28.85 -39.83,-83.87zm17.85 -53.92c14.71,83.44 25.31,47.01 45.4,102.69 6.4,17.74 14.02,61.27 10.75,80.64 -4.03,-24.35 -8.45,-55.85 -17.44,-78.23 -23.78,-59.22 -36.22,-24.25 -38.71,-105.1zm21.57 -25.29c12.26,27.27 22.62,47.82 35.97,74.28 4.65,9.21 3.65,7.33 6.79,16.83 -26.78,-32.42 -34.94,-50.07 -42.76,-91.11zm-52.03 133.95c21.22,29.86 27.42,25.29 43.43,44.26 20.98,24.84 37.47,92.38 20.26,125.72 -0.27,-1.69 -0.39,-1.35 -0,-2.92 5.28,-21.65 4.33,-28.29 -0.5,-50.89 -20.32,-95.17 -37.89,-59.83 -63.19,-116.16zm-0.38 54.27c45.3,43.07 60.05,95.9 33.52,155.68 -0.86,1.95 -0.76,1.78 -1.48,3.74 -0.9,-2.21 -0.69,-2.11 -0.1,-4.42 17.21,-67.95 5.91,-101.38 -31.93,-155zm-16.96 16.2c12.66,25.26 16.01,32.12 33.54,54.65 -28.23,-18.99 -28.59,-20.93 -33.54,-54.65zm-23.74 30.15c14.1,47.26 65.8,20.52 62.15,96.02 -3.38,69.83 0.49,-37.05 -1.85,32.12 -4.43,-23.24 -1.31,-30.23 -4.12,-48.57 -7.19,-46.9 -59.83,-44.05 -56.19,-79.57zm22.61 62.19c15.43,31.58 39.35,99.18 8.67,128.14 -0.34,-1 -0.22,-1.43 0.31,-2.42 19.24,-36.1 -1.63,-87.47 -8.98,-125.72zm-55.03 77.26c17.81,45.17 19.08,24.74 22.88,89.64 1.1,18.75 -4.55,85.87 22.78,93.47 3.89,1.08 6.6,-0.44 10.12,-1.84 -2.83,3.43 -6.1,5.07 -10.66,4.36 -34.67,-5.43 -29.07,-94.12 -30.67,-117.55 -3.52,-51.58 -7.1,-28.85 -14.45,-68.08zm10.93 -135.68c24.44,67.87 22.32,49.98 20.02,121.39 -0.19,5.82 -0.38,9.01 2.59,13.54 -6.61,0.54 -6.54,-20.22 -6.56,-22.64 -0.53,-53.56 -6.96,-62.01 -16.05,-112.28zm-74.62 -40.7c27.99,41.68 52.31,72.58 54,125.29 0.13,4.1 -0.32,4.87 -1.24,8.88 -14.83,-72.96 -26.94,-72.15 -52.76,-134.17zm-35.8 10.93c22.2,23.44 56.22,50.83 50.89,86.63 19.8,24.47 25.04,54.35 32.51,105.58 -6.9,-13.25 -5.08,-18.14 -9.52,-36.22 -15.71,-63.95 -42.52,-82.84 -93.67,-119.2 34.97,17.67 56.48,32.33 70.6,49.75 -3.2,-6.88 -1.56,-10.75 -3.84,-16.11 -7.27,-17.09 -33.97,-47.52 -46.97,-70.43zm-69.8 31.92c73.03,61.64 110.49,86.7 101.7,192.99 -1.2,14.52 -3.12,31.83 -11.89,44.03l0.11 -1.49c6.58,-27.87 8.08,-29.52 7.28,-60.35 -2.66,-102.44 -38.9,-109.66 -97.21,-175.18zm-10.1 27.63c32.33,58.24 40.69,35.42 65.4,70.84 16.73,23.99 24.16,64.55 27.07,92.84 -7.96,-27.38 -17.1,-65.01 -33.57,-88.55 -27.87,-39.85 -36.81,-13.53 -58.9,-75.13zm1.59 59.52c48.89,32.76 75.58,95.91 72.97,154.15l-1.76 20.16c-6.76,-76.05 -16.24,-116.75 -71.21,-174.31zm-57.39 -14.35c7.83,42.7 74.95,47.02 100.31,124.12 4.5,13.7 3.65,41.28 4.38,58.16 -12.04,-43.34 2.58,-38.69 -24.52,-84.73 -20.58,-34.95 -87.23,-70.06 -80.17,-97.55zm199.29 81.31c4.88,57.91 6.59,42.04 22.35,88.51 10.39,30.65 14.26,100.68 1.04,129.9 -0.44,-0.98 -0.4,-1 -0.22,-2.05 6.13,-36.1 3.68,-56.92 -1.21,-92.83 -8.12,-59.59 -26.67,-54.59 -21.94,-123.54zm-15.41 70.68c2.38,31.9 0.51,33.35 10.26,64.43 15.59,49.7 10.84,64.06 0.9,112 -2.27,-10.34 4.58,-41.32 1.95,-65.02 -6.27,-56.49 -20.07,-47.59 -13.11,-111.42zm-39.13 52.65c20.26,44.88 35.69,82.59 17.47,131.77 -4.09,11.04 -35.42,62.74 -17.4,70.77 2.65,0.19 1.33,0 4.15,0.62 -32.17,9.33 7.1,-73.27 8.76,-81.83 11,-56.65 3.53,-66.13 -12.98,-121.32zm-98.63 -107.48c27.63,48.29 14.48,21.59 22.16,79.57 8.69,65.57 61.84,53.22 64.25,137.48 0.04,1.22 -0,1 -0.43,2.12 -1.67,-5.11 -3.37,-14.23 -3.95,-16.77 -19.4,-83.94 -63.61,-43.16 -67.18,-143.07 -1.34,-37.43 -2.11,-25.73 -14.85,-59.32zm-88.99 -98.66c16.65,28.86 12.45,25.3 36.51,44.33 26.16,20.68 21.56,79.55 27.01,114.04 0.06,0.39 -0.12,0.62 -0.3,0.95 -0.39,-0.51 -0.25,-0.24 -0.45,-0.81l0.01 0.07 -6.49 -23.1c-4.7,-21.94 -5.2,-55.22 -15.22,-75.24 -11.29,-22.57 -21.39,-6.33 -41.08,-60.25zm2.11 38.35c13.68,72.38 46.67,32.56 47.2,127.93 0.01,1.85 -1.91,79.03 16.02,73.11 -0.46,0.98 -0.95,1.63 -2.09,1.95 -20.32,5.62 -21.17,-93.7 -21.4,-96.73 -4.66,-63.44 -39.24,-44.51 -39.74,-106.26zm75.87 175.33c13.94,59.31 51.98,31.99 60.79,107.58 2.08,17.88 1.06,19.88 -0.1,38.67l-2.62 -20.62c-12.9,-93.88 -60.07,-70.77 -58.08,-125.64zm63.22 187.56c-3.1,13.47 -18.28,75.94 -45.48,66.51 -1.04,-0.36 0.09,-0.24 -1.3,-0.34 0.05,-0.58 0.07,-0.88 0.75,-1.05 23.82,-5.85 33.59,-42.25 46.03,-65.13zm-32.45 -69.54c0.45,54.28 3.28,55.82 -26.74,101.09 -8.57,12.93 -9.04,15.09 -12.88,29.99 -1.05,-15.54 0.83,-19.5 8.41,-33.09 27.24,-48.85 22.32,-43.04 31.21,-97.99zm-36.67 -60.27c8.39,33.9 6.95,54.76 3.33,88.52 -6.33,59.09 -49.82,74.11 -35.23,123.28 1.7,5.72 3.21,10.22 7.87,13.69 -2.45,0.44 -4.56,-1.97 -5.85,-3.75 -23.49,-32.41 -0.34,-62.77 12.48,-88.62 18.87,-38.04 21.04,-92.17 17.39,-133.12zm-30.77 -2.11c10.14,55.3 16.64,83.4 -6.76,135.95 -15.8,35.48 -20.09,39.96 -21.06,80.69 -6.71,-35.81 2.21,-51.76 14.77,-83.38 22.58,-56.84 15.35,-73.85 13.05,-133.26zm-16.44 26.98c8.39,38.28 10.08,56.88 -13.49,89.77l1.6 -7.56c12.6,-40.19 10.05,-40.84 11.89,-82.21zm-48.05 153c-0.82,57.34 -0.11,61.74 -26.55,113.8 1.16,-10.49 0.1,-5.77 3.44,-15.98 13.18,-40.35 14.63,-57.59 23.12,-97.82zm-103.26 43.41c2.72,23.02 4.64,49.01 -6.32,70.81 -3.73,-9.12 4.14,-59.25 6.32,-70.81zm28.66 -208.63c-3.53,81.53 -20.93,63.46 -32.96,119.13 -5.67,26.22 -3.52,48.93 6.82,73.07 -9.5,-12.75 -11.19,-16.53 -13.76,-33.15 -6.39,-41.36 3.6,-55.31 19.94,-89.34 13.8,-28.75 14.03,-38.16 19.95,-69.7zm9.27 89.35c-18.68,53.87 -19.64,54.1 -9.26,105.88 3.55,17.71 5.42,52.08 -2.54,68.2 -0.32,-0.59 -0.35,-0.51 -0.45,-1.08 -2.9,-15.4 5.18,-30.8 -3.56,-65.24 -12.47,-49.14 -8.86,-60.88 15.81,-107.75zm43.41 -27.82c-1.22,60.5 -11.61,46.23 -27.15,100.5 -1.16,4.05 -8.13,25.78 -3.61,30.16 -7.63,4.06 -1.68,-31.04 -1.61,-31.39 7,-35.07 7.49,-27.57 20.98,-55.18 5.23,-10.7 8.73,-32.5 11.39,-44.09zm45.1 -230.13c9.32,64.78 8.91,98.76 -4.62,162.72 -8.19,38.74 -4.29,51.13 -8.2,85.98 -5.74,51.13 -29.03,52.32 -40.27,101.57 -8.21,35.99 -3.4,39.17 -24.01,71.38 -2.06,3.22 -3.38,7.8 -6.77,9.94 2.96,-4.65 4.29,-9.23 7.73,-14.88 14.22,-23.35 13.06,-41.34 18.25,-67.42 9.91,-49.81 33.19,-52.27 37.75,-101.25 3.52,-37.83 -0.52,-45.9 9.02,-86.84 15.6,-66.96 13.78,-93.77 11.12,-161.2zm-12.22 73.76c-0.44,31.7 -0.55,48.46 -14.75,77.97 -1.34,-15.24 9.91,-62.27 14.75,-77.97zm-15.17 -121.39c4.59,60 -0.75,67.89 -14.35,123.72 -7.83,32.16 -4.16,59.63 -5.45,92.26 -0,0.1 0.79,0.63 0.83,0.66 -1.01,0.32 -1.66,0.17 -1.8,-0.98 -5.29,-43.61 -7.56,-69.3 4.36,-112.23 12.55,-45.2 12.21,-57.34 16.41,-103.43zm-21.5 30.35c-9.9,46.16 -13.78,51.16 -13.88,99.82 -0.07,36.47 5.01,78.95 -22.79,106.71 10.54,-24.74 15.05,-21.82 16.17,-54.56 2.76,-80.27 -9.08,-71.15 20.5,-151.96zm13.49 -115.49c-8.98,98.2 -37.38,85.9 -57.16,163.63 -12.09,47.51 3.93,60.81 1.53,107.8 -1.18,-10.04 -3.05,-27.02 -4.84,-36.1l-6.08 -24.49c-5.32,-37.98 9.01,-78.18 27.81,-110.62 28.31,-48.86 25.77,-40.31 38.74,-100.22zm-22.76 -8.43c-1.91,71.1 -5.68,56.02 -34.27,113.38 -18.43,36.98 -17.15,59.34 -13.78,99.05 -11.75,-49.77 -9.34,-75.44 17.16,-119.84 26.3,-44.07 21.31,-40.95 30.89,-92.58zm-24.87 -6.32c-6.67,57.97 -11.59,49.69 -38.36,100.23 -8.06,15.22 -6.98,21.92 -5.9,38.44 -10.34,-29.03 -0.18,-40.97 15.23,-68.77 18.67,-33.67 16.88,-33.08 29.02,-69.9zm-55.63 221.7c-2.52,22.64 -4.8,73.16 -10.67,91.11 -6.7,20.47 -11.62,28.06 -17.57,51.35 0.81,-22.52 -0.89,-14.34 5.65,-36.29 12.23,-41.02 9.64,-64.68 22.59,-106.17zm19.39 41.73c-4.79,73.2 -4.34,56.68 -33.61,119.19 -9.08,19.38 -19.18,49.73 -11.49,70.9 -0.45,0.56 -1.64,-1.28 -1.73,-1.43 -15.04,-25.32 7.5,-75.42 19.56,-98.6 23.39,-44.98 16.67,-43.82 27.27,-90.05zm-75.44 144.14c-4.94,13.99 -14.61,49.8 -2.77,61.83 12.48,12.69 20.11,59.69 13.31,75.58 -0.24,-14.93 -3.49,-27.82 -6.92,-42.39 -7.47,-31.75 -12,-22.48 -16.5,-35.08 -6.68,-18.69 2.65,-44.63 12.89,-59.93zm5.9 -90.19c-4.76,28.89 -4.75,34.88 -18.91,60.86 -14.18,26.03 -29.34,49.4 -24.79,82.5 0.84,6.14 3.08,8.26 8.3,10.48 -10.91,2.13 -12.76,-13.67 -13.19,-20.64 -2.15,-34.38 7.8,-49.44 23.86,-75.78 13.46,-22.08 16.28,-33.03 24.74,-57.41zm-20.65 -37.09c-5.14,62.46 -20.17,39.55 -46.14,93.92 -5.26,11.01 -7.27,17.59 -8.23,29.58 -5.72,-19.28 7.67,-45.94 18.13,-61.37 24.85,-36.69 16.48,1.46 36.24,-62.12zm19.33 -104c-15.55,46.07 -13.29,35.44 -41.63,71.28 -12.72,16.09 -20.7,37.09 -19.87,57.71 -0.04,-0 -0.04,-0.01 -0.1,-0.01l-0.01 0.01c0.51,0.14 0.19,0.04 0.91,0.39 -4.5,3.08 -3.82,-14.25 -3.81,-14.4 1.54,-33 14.13,-43.38 33.21,-65.76 14.31,-16.78 20.48,-30.03 31.3,-49.24zm-23.18 -14.33c-27.77,34.21 -49.18,62.28 -47.21,109.16 -1.26,-0.74 -1.52,-1.28 -1.75,-2.84 -7.2,-49.32 11.3,-77.63 48.95,-106.32zm7.59 -54.37c-15.68,25.04 -25.43,27.53 -39.93,49.51 -5.49,8.32 -42.28,66.49 -29.19,79.04 -11.64,4.18 -0.66,-38.11 -0.66,-38.11 16.68,-47.77 38.16,-58.94 69.78,-90.44zm99.03 -114.37c-2.68,76.72 -32.06,72.57 -37.06,125.61 -4.19,44.37 3.14,42 -17.67,84.16 -5.19,10.51 -23.27,49.12 -1.96,54.18 -2.67,0.45 -5.02,0.93 -7.29,-1.09 -16.7,-14.82 5.56,-55.78 10.93,-68.47 16.36,-38.66 -4.22,-67.12 22.88,-112.39 21.37,-35.7 22.87,-40.88 30.17,-82.01zm-28.11 13.34c-17.57,54.58 -33.68,49.1 -39.73,118.37l-0.77 15.51c-12.21,-65.97 11.62,-82.96 40.5,-133.88zm-24.3 -8.58c-5.22,15.3 -10.86,29.26 -16.2,44.31 -2.68,-23.47 -0.47,-27.6 16.2,-44.31zm-31.45 -3.34c-14.01,19.43 -38.63,48.3 -44.79,70.04 -5.97,-25.79 26.51,-56.16 44.79,-70.04zm-82.43 111.97c47.83,-8.07 46.97,-6.69 79.89,-47.02 1.38,-1.69 0.74,-1 2.54,-2.53 -0.19,1.87 -0.03,1.96 -0.81,3.59 -20.55,43.1 -38.1,50.5 -81.62,45.96z"/>
   </g>
  </g>
 </g>
</svg>
