<?xml version="1.0" encoding="UTF-8"?>
<!DOCTYPE svg PUBLIC "-//W3C//DTD SVG 1.1//EN" "http://www.w3.org/Graphics/SVG/1.1/DTD/svg11.dtd">
<!-- Creator: CorelDRAW -->
<svg xmlns="http://www.w3.org/2000/svg" xml:space="preserve" width="98.0267mm" height="65.6014mm" version="1.1" style="shape-rendering:geometricPrecision; text-rendering:geometricPrecision; image-rendering:optimizeQuality; fill-rule:evenodd; clip-rule:evenodd"
viewBox="0 0 1576.92 1055.31"
 xmlns:xlink="http://www.w3.org/1999/xlink"
 xmlns:xodm="http://www.corel.com/coreldraw/odm/2003">
 <defs>
  <style type="text/css">
   <![CDATA[
    .fil0 {fill:black}
    .fil1 {fill:black}
    .fil2 {fill:#FDFDFD}
    .fil3 {fill:white}
    .fil5 {fill:red;fill-rule:nonzero}
    .fil4 {fill:white;fill-rule:nonzero}
   ]]>
  </style>
 </defs>
 <g id="Camada_x0020_1">
  <metadata id="CorelCorpID_0Corel-Layer"/>
  <path class="fil0" d="M1531.08 355.65c11.13,2.21 19.82,11.65 20.61,23.46l2.4 35.7c5.45,5.28 8.18,12.57 7.49,20.48 -3.5,40.44 -3.73,81.14 -0.75,121.62l0.74 9.98c4.63,18.99 9.46,37.92 14.47,56.81 2.07,7.8 0.39,15.72 -4.08,21.79 0.97,7.1 -0.83,13.64 -5.31,19.31 -4.62,5.85 -10.82,9.13 -18.25,9.68l-10.91 0.8c-6.18,5.16 -14.19,7.03 -22.31,5.06 -4.51,-1.09 -9.11,-1.94 -13.73,-2.41l-5.75 0.42c-3,0.22 -5.91,-0.09 -8.65,-0.84 -2.31,0.9 -4.8,1.48 -7.4,1.67l-10.69 0.79 -13.46 6.17c-8.68,3.98 -18.4,2.86 -25.73,-2.49 -0.36,-0.11 -0.72,-0.23 -1.07,-0.37l-1.71 0.13c-8.06,0.59 -15.55,-2.64 -20.68,-8.15 -2.14,2.21 -4.7,4 -7.68,5.36 -0.2,0.22 -0.42,0.44 -0.63,0.66 -4.91,5.01 -10.95,7.6 -17.88,7.68 -0.1,0.08 -0.2,0.15 -0.3,0.23 -7.15,5.41 -15.83,6.72 -24.25,3.66 -8.33,-3.03 -16.84,-4.3 -25.66,-3.73l-1.9 0.24 -3.74 1.92c-2.33,1.48 -4.76,2.79 -7.27,3.95 -8.77,4.05 -18.58,2.93 -25.99,-2.6 -2.03,0.67 -4.18,1.09 -6.43,1.26l-66.94 4.92c-3.75,0.28 -7.35,-0.21 -10.66,-1.39 -3.1,1.65 -6.59,2.65 -10.35,2.93l-1.58 0.12c-2.25,0.73 -4.65,1.13 -7.18,1.22l-8.81 0.31c-5.67,0.4 -11.36,0.6 -17.04,0.54l-6.73 0.5c-1.37,0.34 -2.78,0.56 -4.23,0.67l-18.19 1.34c-3.62,1.22 -7.51,1.59 -11.48,1.05 -0.71,-0 -1.43,-0.02 -2.14,-0.05l-4.98 0.37c-6.54,5.7 -15.16,7.63 -23.73,5.19 -6.9,-1.96 -13.93,-3.13 -21.03,-3.45 -2.43,0.97 -5.05,1.56 -7.85,1.77l-11.35 0.83 -10.68 5.31c-8.84,4.4 -18.91,3.43 -26.55,-2.22l-4.09 0.3c-1.19,0.09 -2.36,0.09 -3.51,0.02 -1.17,0.24 -2.38,0.41 -3.61,0.51l-66.94 4.92c-3.75,0.28 -7.36,-0.21 -10.66,-1.39 -3.1,1.65 -6.59,2.66 -10.34,2.93l-1.58 0.12c-2.25,0.73 -4.65,1.13 -7.18,1.22l-8.8 0.31c-5.67,0.41 -11.36,0.6 -17.05,0.54l-6.73 0.49c-1.37,0.34 -2.78,0.56 -4.23,0.67l-21.36 1.57c-4.04,0.3 -7.9,-0.29 -11.41,-1.67 -0.06,0 -0.12,0.01 -0.17,0.01l-66.94 4.92c-0.29,0.02 -0.57,0.04 -0.85,0.05 -3.28,1.89 -7.02,3.03 -11.07,3.33l-66.94 4.92c-3.75,0.28 -7.35,-0.21 -10.66,-1.39 -3.1,1.65 -6.59,2.66 -10.34,2.93l-1.58 0.12c-2.25,0.72 -4.65,1.13 -7.18,1.22l-8.8 0.31c-5.07,0.36 -10.15,0.56 -15.24,0.55 -10.07,28.25 -27.57,54.71 -44.83,77.51 -13.7,18.1 -28.43,35.35 -43.13,52.64 -11.29,13.28 -23.39,27.14 -33.21,41.52 -3.63,5.32 -6.52,10.64 -10.92,15.5 -8.17,9.03 -20.8,11.51 -31.78,6.24 -12.05,-5.78 -20.12,-10.29 -30.06,-19.5 -0.38,-0.36 -0.7,-0.67 -1.07,-1.05l-28.08 -29.07c-0.33,-0.34 -0.6,-0.64 -0.91,-0.99 -1.69,-1.93 -5.34,-6.06 -7.94,-8.01 -8.24,-0.67 -13.48,-1.28 -21.05,-5.64 -1.05,4.26 -2.33,8.18 -3.88,11.6 -3.15,6.96 -8.69,12 -15.47,14.38 -3.55,11.12 -13.68,18.67 -25.61,18.74 -0.2,0 -0.4,0 -0.6,-0 -1.25,2.46 -2.47,4.93 -3.49,7.28 2.03,3.66 3.22,7.85 3.37,12.33 0.42,12.54 -7.46,23.41 -19.52,26.91 -6.69,1.94 -13.28,1.92 -19.19,0.24 -0.76,1.87 -1.57,3.72 -2.42,5.53 -8.81,18.74 -25.53,34.45 -46.8,30.36 -3.33,8.97 -10.9,15.32 -20.58,17.04 -8.82,1.57 -17.14,-0.96 -23.71,-6.21 -0.61,0.04 -1.21,0.06 -1.81,0.06 -2.74,8.8 -7,18.22 -13.7,31.42 -5.98,11.77 -19.23,17.46 -31.88,13.68 -5.23,-1.56 -9.66,-4.53 -12.96,-8.41 -1.38,-0.01 -2.76,-0.13 -4.12,-0.35 -1.37,0.27 -2.77,0.44 -4.2,0.5 -5.28,6.41 -13.12,9.95 -21.81,9.61 -10.85,-0.42 -19.89,-6.75 -24.01,-16.8 -1.48,-3.61 -2.2,-8.36 -2.42,-13.68 -2.79,0.33 -5.68,0.23 -8.58,-0.34 -12.67,-2.5 -21.64,-13.22 -21.84,-26.13 -0.09,-5.87 -1.62,-12.05 -3,-17.82 -11.25,-1.74 -20.67,-9.5 -25.27,-20.64 -2.21,-5.36 -3.24,-11.11 -3.6,-16.88 -0.11,-1.76 -0.18,-3.47 -0.22,-5.12 -6.86,-3.16 -12.26,-9.16 -14.56,-16.92 -5.16,-17.39 0.74,-36.43 9.68,-52.09 -0.68,-1.05 -1.3,-2.16 -1.86,-3.33 -1.82,-3.82 -2.75,-7.84 -3.17,-12.03 -0.19,-1.92 -0.29,-3.91 -0.29,-5.89 -2.19,-3.45 -3.62,-7.39 -4.25,-11.68 -0.14,-0.98 -0.27,-1.95 -0.39,-2.92 -5.02,-4.37 -8.65,-10.55 -9.99,-17.83 -0.99,-5.34 -0.74,-10.85 -0.06,-16.22 0.67,-5.26 1.75,-10.67 3.08,-15.81 0.2,-0.78 0.39,-1.42 0.66,-2.17 3.46,-9.91 7.06,-17.57 11.01,-24.04 -6.5,-4.77 -10.72,-12.36 -10.99,-20.98 -0.42,-13.49 8.94,-25.06 22.17,-27.48 -0,-0.01 -0,-0.02 -0,-0.03 -3.27,-3.96 -5.43,-8.9 -6.02,-14.39 -2.85,-26.11 24.26,-66.19 48.34,-76.91 -4.69,-3.72 -8.59,-8.69 -11.4,-14.32 -4.37,-8.76 -6.61,-19.05 -6.9,-28.8 -0.77,-25.43 11.26,-47.47 32.94,-59.38 -7.67,0.29 -15.55,-0.14 -22.92,-1.63 -9.07,-1.84 -16.03,-7.56 -19.59,-16.1 -8.88,-21.27 -9.93,-42.65 -4.54,-64.9 1.78,-7.36 4.18,-14.4 6.64,-21.55 1.16,-3.37 2.83,-7.77 3.37,-11.29 1.66,-10.8 -2.72,-18.84 -7.64,-28.07 -10.41,-19.52 -17.18,-37.21 -6.26,-58.69 3.12,-6.15 7.36,-10.82 10.54,-16.5 8.58,-15.3 8.99,-35.19 12.33,-52.17 3.07,-15.61 7.36,-31.71 14.61,-45.93 3.98,-7.82 8.24,-15.11 13.59,-22.07 2.51,-3.27 4.99,-6.17 7.13,-9.72 1.11,-1.85 2.41,-3.53 3.85,-5.01 -2.53,-4.77 -4.66,-9.51 -6.31,-13.87 -12.91,-34.12 -6.35,-69.02 16.31,-97.19 11.77,-14.64 31.44,-30.68 51.41,-35.94l-0 -0 0.81 -0.2 0.55 -0.13c65.87,-16.04 189.66,-24.7 274.1,13.27 55.24,21.04 135.86,70.24 169.39,182.65l0.05 -1.3c-1.78,-14.97 -3.88,-29.89 -6.3,-44.77 -1.34,-8.28 1.36,-16.3 6.82,-21.94 -0.52,-13.53 9.61,-25.21 23.17,-26.52l17.83 -1.73c0.65,-0.59 1.34,-1.15 2.07,-1.68 6.35,-4.68 13.69,-6.15 21.35,-4.27 8.27,2.03 16.72,2.55 25.19,1.85 2.07,-0.17 4.12,-0.42 6.17,-0.75 5.3,-2.63 10.52,-5.42 15.64,-8.38 9.4,-5.44 20.78,-4.41 28.93,2.19 0.37,0.16 0.73,0.33 1.09,0.51 5.98,0.4 11.5,2.87 15.82,7.1 0.77,0.44 1.52,0.93 2.24,1.45 4.32,-5.42 10.56,-8.74 17.83,-9.34l2.19 -0.18c1.36,-0.34 2.77,-0.58 4.22,-0.7l6.75 -0.56c1.17,-0.1 2.21,-0.12 3.33,-0.06 3.16,-0.03 6.66,-0.41 9.8,-0.67 0.37,-0.03 0.73,-0.05 1.09,-0.07 0.35,-0.04 0.69,-0.08 1.04,-0.11l66.76 -5.5c1.14,-0.09 2.27,-0.12 3.38,-0.07 1.09,-0.23 2.22,-0.39 3.36,-0.48l4.67 -0.39c1.37,-0.34 2.78,-0.58 4.23,-0.7l52.91 -4.36c1.51,-0.12 2.99,-0.13 4.43,-0.01l0.52 -0.04c7.08,-0.58 13.67,1.58 18.73,5.94 4.3,-5.18 10.41,-8.34 17.49,-8.92l0.76 -0.06c1.37,-0.34 2.78,-0.58 4.23,-0.7l52.56 -4.33c1.02,-0.08 2.03,-0.11 3.02,-0.09 3.14,-1.6 6.67,-2.58 10.41,-2.76l9.92 -0.47c0.09,-0 0.16,-0.01 0.24,-0.01l7.22 -0.27 1.61 -0.13c6.49,-4.13 14.45,-5.07 22.1,-2.38 1.06,0.37 2.13,0.72 3.21,1.04 2.94,-0.18 5.88,-0.31 8.83,-0.37 3.25,-0.07 6.31,0.41 9.16,1.41 2.67,-1.22 5.6,-1.97 8.74,-2.23 0.85,-0.07 1.81,-0.14 2.66,-0.29 1.24,-0.29 2.36,-0.47 3.64,-0.58l6.27 -3.02c7.74,-3.72 16.39,-3.33 23.45,0.57l16.56 -1.37c1.53,-0.13 3.02,-0.13 4.48,-0.01 1.42,-0.36 2.88,-0.6 4.4,-0.72l66.76 -5.5c1.41,-0.12 2.8,-0.12 4.16,-0.03 1.29,-0.32 2.63,-0.53 4,-0.65l21.69 -1.79c6.42,-5.12 14.74,-6.79 22.96,-4.41 2.44,0.71 4.9,1.35 7.38,1.91l0.52 -0.04c3.1,-0.26 6.07,-0 8.87,0.74 1.19,-0.32 2.42,-0.56 3.68,-0.71l9.97 -1.17c0.31,-0.04 0.58,-0.06 0.89,-0.09 1.99,-0.16 3.98,-0.4 5.95,-0.74 0.02,-0 0.04,-0.01 0.06,-0.01 1.73,-0.87 3.44,-1.78 5.13,-2.73 7.58,-4.25 16.37,-4.35 23.71,-0.79l7.85 -0.65c7.57,-0.62 14.33,1.77 19.82,7.01 0.45,0.42 0.87,0.86 1.28,1.3 4.32,-6.35 11.04,-10.26 18.98,-10.91l2.18 -0.18c1.37,-0.34 2.78,-0.58 4.23,-0.7l6.75 -0.56c1.17,-0.1 2.2,-0.12 3.32,-0.06 3.16,-0.03 6.66,-0.41 9.8,-0.67 0.37,-0.03 0.73,-0.05 1.09,-0.07 0.35,-0.04 0.69,-0.08 1.04,-0.11l66.76 -5.5c10.05,-0.83 19.1,3.86 24.22,12.55 5.12,8.69 4.84,18.87 -0.75,27.27 -1.96,2.95 -3.73,6.04 -5.33,9.21 0.18,3.6 0.34,7.2 0.49,10.79 5.53,5.46 8.18,12.97 7.26,21.02 -1.44,12.56 -2.53,25.17 -3.29,37.79 -2.01,33.55 -1.6,67.2 1.19,100.69l11.17 45.44c0.87,3.54 0.97,7.09 0.4,10.48 0.15,0.27 0.3,0.54 0.45,0.81 4.5,7.84 4.67,16.71 0.46,24.71 -4.21,8 -11.6,12.9 -20.61,13.64l-0.53 0.04z"/>
  <path class="fil1" d="M83.47 514.66c-7.67,0.29 -15.55,-0.14 -22.92,-1.63 -9.07,-1.84 -16.03,-7.56 -19.59,-16.1 -8.88,-21.27 -9.93,-42.65 -4.54,-64.9 1.78,-7.36 4.18,-14.4 6.64,-21.55 1.16,-3.37 2.83,-7.77 3.37,-11.29 1.66,-10.8 -2.72,-18.84 -7.64,-28.07 -10.41,-19.52 -17.18,-37.21 -6.26,-58.69 3.12,-6.15 7.36,-10.82 10.54,-16.5 8.58,-15.3 8.99,-35.19 12.33,-52.17 3.07,-15.61 7.36,-31.71 14.61,-45.93 3.98,-7.82 8.24,-15.11 13.59,-22.07 2.51,-3.27 4.99,-6.17 7.13,-9.72 1.11,-1.85 2.41,-3.53 3.85,-5.01 -2.53,-4.77 -4.66,-9.51 -6.31,-13.87 -12.91,-34.12 -6.35,-69.02 16.31,-97.19 11.77,-14.64 31.44,-30.68 51.41,-35.94l-0 -0 0.81 -0.2 0.55 -0.13c65.87,-16.04 189.66,-24.7 274.1,13.27 75.23,28.65 197.53,109.52 183.86,331.17 0.42,6.28 -1.2,12.17 -4.5,17.01 1.85,4.9 3.25,10.1 4.18,15.48 3.52,20.27 1.05,43.99 -5.29,63.48 -8.51,26.16 -20.2,43.54 -37.4,58.82 1.34,3.09 2.1,6.26 2.27,9.42 1.5,3.09 2.39,6.51 2.63,10.2 0.08,1.22 0.11,2.42 0.08,3.58 1.05,2.3 1.78,4.8 2.18,7.45l9.07 60.2c2.15,-0.32 4.37,-0.39 6.63,-0.18 12.51,1.15 22.32,10.35 24.27,22.75 1.58,10.03 -0.25,20.86 -3.59,31.34 1.72,1.89 3.15,4.01 4.25,6.29 0.86,0.09 1.72,0.23 2.59,0.41 12.24,2.53 20.93,12.66 21.57,25.14 2.4,47.36 -25.76,93.05 -53.28,129.41 -13.7,18.1 -28.43,35.35 -43.13,52.64 -11.29,13.28 -23.39,27.14 -33.21,41.52 -3.63,5.32 -6.52,10.64 -10.92,15.5 -8.17,9.03 -20.8,11.51 -31.78,6.24 -12.05,-5.78 -20.12,-10.29 -30.06,-19.5 -0.38,-0.36 -0.7,-0.67 -1.07,-1.05l-28.08 -29.07c-0.33,-0.34 -0.6,-0.64 -0.91,-0.99 -1.69,-1.93 -5.34,-6.06 -7.94,-8.01 -8.24,-0.67 -13.48,-1.28 -21.05,-5.64 -1.05,4.26 -2.33,8.18 -3.88,11.6 -3.15,6.96 -8.69,12 -15.47,14.38 -3.55,11.12 -13.68,18.67 -25.61,18.74 -0.2,0 -0.4,0 -0.6,-0 -1.25,2.46 -2.47,4.93 -3.49,7.28 2.03,3.66 3.22,7.85 3.37,12.33 0.42,12.54 -7.46,23.41 -19.52,26.91 -6.69,1.94 -13.28,1.92 -19.19,0.24 -0.76,1.87 -1.57,3.72 -2.42,5.53 -8.81,18.74 -25.53,34.45 -46.8,30.36 -3.33,8.97 -10.9,15.32 -20.58,17.04 -8.82,1.57 -17.14,-0.96 -23.71,-6.21 -0.61,0.04 -1.21,0.06 -1.81,0.06 -2.74,8.8 -7,18.22 -13.7,31.42 -5.98,11.77 -19.23,17.46 -31.88,13.68 -5.23,-1.56 -9.66,-4.53 -12.96,-8.41 -1.38,-0.01 -2.76,-0.13 -4.12,-0.35 -1.37,0.27 -2.77,0.44 -4.2,0.5 -5.28,6.41 -13.12,9.95 -21.81,9.61 -10.85,-0.42 -19.89,-6.75 -24.01,-16.8 -1.48,-3.61 -2.2,-8.36 -2.42,-13.68 -2.79,0.33 -5.68,0.23 -8.58,-0.34 -12.67,-2.5 -21.64,-13.22 -21.84,-26.13 -0.09,-5.87 -1.62,-12.05 -3,-17.82 -11.25,-1.74 -20.67,-9.5 -25.27,-20.64 -2.21,-5.36 -3.24,-11.11 -3.6,-16.88 -0.11,-1.76 -0.18,-3.47 -0.22,-5.12 -6.86,-3.16 -12.26,-9.16 -14.56,-16.92 -5.16,-17.39 0.74,-36.43 9.68,-52.09 -0.68,-1.05 -1.3,-2.16 -1.86,-3.33 -1.82,-3.82 -2.75,-7.84 -3.17,-12.03 -0.19,-1.92 -0.29,-3.91 -0.29,-5.89 -2.19,-3.45 -3.62,-7.39 -4.25,-11.68 -0.14,-0.98 -0.27,-1.95 -0.39,-2.92 -5.02,-4.37 -8.65,-10.55 -9.99,-17.83 -0.99,-5.34 -0.74,-10.85 -0.06,-16.22 0.67,-5.26 1.75,-10.67 3.08,-15.81 0.2,-0.78 0.39,-1.42 0.66,-2.17 3.46,-9.91 7.06,-17.57 11.01,-24.04 -6.5,-4.77 -10.72,-12.36 -10.99,-20.98 -0.42,-13.49 8.94,-25.06 22.17,-27.48 -0,-0.01 -0,-0.02 -0,-0.03 -3.27,-3.96 -5.43,-8.9 -6.02,-14.39 -2.85,-26.11 24.26,-66.19 48.34,-76.91 -4.69,-3.72 -8.59,-8.69 -11.4,-14.32 -4.37,-8.76 -6.61,-19.05 -6.9,-28.8 -0.77,-25.43 11.26,-47.47 32.94,-59.38z"/>
  <g id="_1684930684368">
   <path class="fil1" d="M83.47 514.66c-7.67,0.29 -15.55,-0.14 -22.92,-1.63 -9.07,-1.84 -16.03,-7.56 -19.59,-16.11 -8.88,-21.27 -9.93,-42.65 -4.54,-64.9 1.78,-7.36 4.18,-14.41 6.64,-21.55 1.16,-3.37 2.83,-7.77 3.37,-11.29 1.66,-10.8 -2.72,-18.84 -7.64,-28.07 -10.41,-19.52 -17.18,-37.21 -6.26,-58.69 3.12,-6.15 7.36,-10.82 10.54,-16.5 8.58,-15.3 8.99,-35.2 12.33,-52.17 3.07,-15.61 7.36,-31.71 14.61,-45.94 3.98,-7.81 8.24,-15.11 13.59,-22.07 2.51,-3.27 4.99,-6.17 7.13,-9.72 1.11,-1.85 2.41,-3.53 3.85,-5.01 -2.53,-4.77 -4.66,-9.51 -6.31,-13.87 -12.91,-34.12 -6.35,-69.02 16.31,-97.19 11.77,-14.64 31.44,-30.68 51.41,-35.95l-0 0 0.81 -0.2 0.55 -0.13c65.87,-16.04 189.66,-24.7 274.1,13.27 75.23,28.65 197.53,109.52 183.86,331.17 0.42,6.28 -1.2,12.17 -4.5,17.01 1.85,4.9 3.25,10.1 4.18,15.48 3.52,20.27 1.05,43.99 -5.29,63.48 -8.51,26.16 -20.2,43.54 -37.4,58.82 1.34,3.09 2.1,6.26 2.27,9.43 1.5,3.09 2.39,6.51 2.63,10.2 0.08,1.22 0.11,2.42 0.08,3.58 1.05,2.3 1.78,4.8 2.18,7.45l9.07 60.2c2.15,-0.32 4.37,-0.39 6.63,-0.18 12.51,1.15 22.32,10.35 24.27,22.76 1.58,10.03 -0.25,20.86 -3.59,31.34 1.72,1.89 3.15,4.01 4.25,6.29 0.86,0.1 1.72,0.23 2.59,0.41 12.24,2.53 20.93,12.66 21.57,25.14 2.4,47.36 -25.76,93.05 -53.28,129.41 -13.7,18.1 -28.43,35.35 -43.13,52.64 -11.29,13.28 -23.39,27.14 -33.21,41.52 -3.63,5.31 -6.52,10.64 -10.92,15.5 -8.17,9.02 -20.8,11.51 -31.78,6.24 -12.05,-5.78 -20.12,-10.29 -30.06,-19.5 -0.38,-0.36 -0.7,-0.67 -1.07,-1.05l-28.08 -29.07c-0.33,-0.34 -0.6,-0.64 -0.91,-1 -1.69,-1.93 -5.34,-6.06 -7.94,-8.01 -8.24,-0.67 -13.48,-1.28 -21.05,-5.64 -1.05,4.26 -2.33,8.17 -3.88,11.6 -3.15,6.96 -8.69,12 -15.47,14.38 -3.55,11.11 -13.68,18.67 -25.61,18.74 -0.2,0 -0.4,0 -0.6,-0 -1.25,2.46 -2.47,4.93 -3.49,7.28 2.03,3.66 3.22,7.86 3.37,12.33 0.42,12.54 -7.46,23.42 -19.52,26.91 -6.69,1.94 -13.28,1.92 -19.19,0.24 -0.76,1.87 -1.57,3.72 -2.42,5.53 -8.81,18.74 -25.53,34.45 -46.8,30.36 -3.33,8.97 -10.9,15.32 -20.58,17.04 -8.82,1.57 -17.14,-0.96 -23.71,-6.21 -0.61,0.04 -1.21,0.06 -1.81,0.06 -2.74,8.8 -7,18.22 -13.7,31.42 -5.98,11.77 -19.23,17.46 -31.88,13.68 -5.23,-1.56 -9.66,-4.53 -12.96,-8.41 -1.38,-0.01 -2.76,-0.13 -4.12,-0.35 -1.37,0.27 -2.77,0.44 -4.2,0.5 -5.28,6.41 -13.12,9.95 -21.81,9.61 -10.85,-0.42 -19.89,-6.75 -24.01,-16.8 -1.48,-3.61 -2.2,-8.36 -2.42,-13.67 -2.79,0.33 -5.68,0.23 -8.58,-0.34 -12.67,-2.49 -21.64,-13.22 -21.84,-26.13 -0.09,-5.87 -1.62,-12.05 -3,-17.82 -11.25,-1.74 -20.67,-9.5 -25.27,-20.64 -2.21,-5.36 -3.24,-11.11 -3.6,-16.88 -0.11,-1.76 -0.18,-3.47 -0.22,-5.12 -6.86,-3.16 -12.26,-9.16 -14.56,-16.92 -5.16,-17.39 0.74,-36.43 9.68,-52.09 -0.68,-1.05 -1.3,-2.16 -1.86,-3.33 -1.82,-3.82 -2.75,-7.84 -3.17,-12.03 -0.19,-1.92 -0.29,-3.92 -0.29,-5.89 -2.19,-3.45 -3.62,-7.39 -4.25,-11.68 -0.14,-0.98 -0.27,-1.96 -0.39,-2.92 -5.02,-4.37 -8.65,-10.55 -9.99,-17.83 -0.99,-5.34 -0.74,-10.85 -0.06,-16.22 0.67,-5.26 1.75,-10.67 3.08,-15.81 0.2,-0.78 0.39,-1.42 0.66,-2.17 3.46,-9.91 7.06,-17.58 11.01,-24.04 -6.5,-4.77 -10.72,-12.36 -10.99,-20.98 -0.42,-13.49 8.94,-25.06 22.17,-27.48 -0,-0.01 -0,-0.02 -0,-0.03 -3.27,-3.96 -5.43,-8.9 -6.02,-14.39 -2.85,-26.11 24.26,-66.19 48.34,-76.91 -4.69,-3.72 -8.59,-8.69 -11.4,-14.31 -4.37,-8.76 -6.61,-19.05 -6.9,-28.8 -0.77,-25.43 11.26,-47.47 32.94,-59.38z"/>
   <g>
    <path class="fil2" d="M262.72 167.29c6.45,-5.54 16.31,-11.46 21.39,-16.72 -6.92,2.09 -15.59,5.99 -23.14,8.62 -9.07,3.16 -15.08,6.71 -22.98,9.85l1.36 16.96c-6.72,3.23 -16.94,10.01 -18.65,18.03 -5.79,27.22 -2.4,10.28 -9.4,27.99 35.58,8.89 26.08,-7.33 39.94,-8.2 13.28,-0.84 23.82,7.67 37.16,-13.55 4.35,-0.01 14.98,0.51 18.62,-0.21 4.18,-0.83 8.68,-5.18 10.34,-9.01 2.88,-6.63 1.36,-6.32 8.68,-9.63 3.73,-1.69 10.25,-4.45 14.06,-5.46 -7.22,8.51 -13.99,5.34 -19.51,18.23 -5.17,12.07 -13.74,9.53 -28.01,11.09 -11.09,1.21 -11.1,14.21 -22.96,14.67 -23.72,0.92 -14.78,0.16 -29.24,9.56 0.82,3.55 1.81,4.94 3,9.16 1.05,3.68 1.83,6.56 2.91,9.23 3.46,8.61 8.13,6.4 15.03,10.43 4.64,2.71 2.6,2.48 4.86,7.39 2.89,6.27 3.16,2.74 6.44,6.89 3.47,4.41 2.45,8.15 6.57,11.6l4.08 4.26c-15.44,-5.79 -7.28,-6.93 -12.93,-14.78 -2.19,-3.04 -3.62,-1.56 -6.58,-6.81 -3.17,-5.61 -0.2,-4.37 -6.68,-6.7 -17.14,-6.15 -17.62,-2.99 -24.13,-29.54 -5.23,-0.59 -23.49,-3.71 -26.76,-2.32 -7.62,3.25 -10.96,10.85 -13.62,17.91 -7.48,19.89 -18.47,10.03 -26.21,21.25 -1.43,2.08 -1.77,3.14 -3.51,5.02 -2.3,2.5 -2.2,1.43 -4.21,4.3l12.67 -4.37c-0.46,3.24 -11.94,11.21 -14.45,13.5 -6.85,6.23 -7.5,7.67 -9.66,18.58 -0.25,-0.29 -0.6,-1.1 -0.71,-0.9 -0.11,0.2 -0.53,-0.66 -0.67,-0.91 -1.29,-2.39 -0.23,0.65 -1.38,-2.94 -1.75,-5.47 -0.97,-11.85 1.25,-16.36 5.19,-10.58 6.08,-7.46 14.96,-13.16 7.65,-4.91 0.53,-7.67 14.92,-13.08 7.63,-2.87 10.32,-6.9 13.07,-14.81 6.21,-17.86 16.43,-14.25 22.75,-33.24 7,-21.03 -0.75,-22.35 20.32,-35.6 0.14,-4.45 -0.66,-8.23 -0.72,-11.35 -0.09,-5.03 1.64,-4.13 4.1,-7.99 -6.48,1.05 -21.26,8.47 -28.67,11.14 -9.96,3.59 -20.67,7.28 -30.63,9.68 4.17,-5.48 11.53,-8.8 16.38,-13.6 -6.95,1.18 -18.48,7.35 -25,10.81 -12.78,6.78 -8.68,8.41 -26.63,3.89 -8.07,1.83 6.67,-3.31 -2.91,1.72 -7.1,3.73 -17.55,-5.84 -23.76,-7.82 -6.77,11.23 -10.24,11.39 -19.78,30.11 -5.69,11.18 -9.43,24.95 -12.16,38.87 -4.46,22.69 -3.9,39.89 -15.28,60.19 -3.22,5.75 -7.28,10.13 -10.02,15.52 -11.91,23.44 22.43,40.19 16.53,78.62 -2.96,19.27 -22.51,46.61 -7.24,83.2 6.58,1.34 14.6,1.43 21.91,0.76l-14.09 -10.56c14.96,0.05 16.6,5.13 26.61,8.74 -3.93,-15.24 -8.97,-13.67 -18.21,-22.05 8.3,1.19 12.29,7.78 18.21,11.38l3.51 -32.52c-7,2.9 -11.21,6.77 -20.74,3.15 -9.02,-3.42 -9.55,-5.89 -9.52,-16.73 0.22,0.26 0.51,0.34 0.62,0.81 0.93,4.24 0.17,0.32 1.21,1.58 2.29,2.76 5.73,6.24 8.95,3.1l-0.48 -10.9c-0.24,-5.49 1.05,-8.94 1.74,-13.51 -2.21,2.4 -1.72,1.68 -3.08,5.25 -2.96,7.82 0.75,1.59 -2.93,7.31 -0.51,-11.73 1.54,-22.29 1.34,-33.23 -0.12,-6.8 -5.71,-20.84 -8.63,-26.68 -2.02,-0.55 0.3,-1.41 -2.04,3.77 -2.37,-8.61 -13.15,-23.28 -8.6,-32.68 6.05,-12.48 30.15,-3.04 35.97,-6.23 -3.14,-2.16 -6.01,-3.7 -10.21,-5.4l-8.07 -2.89c-0.32,-0.11 -0.65,-0.22 -0.96,-0.34l-2.92 -1.16c30.15,-1 38.29,15.59 54.07,26.54 -1.53,-9.61 -7.32,-17.18 -8.64,-27.15 0.23,0.25 0.56,0.3 0.67,0.78 0.79,3.57 15.09,19.72 17.47,22.64 -1.71,-10.11 -7.12,-36.56 -1.23,-45.88 2.18,21.86 1.58,39.39 20.36,46.71 5.89,2.29 10.3,5.84 16.34,6.67 -5.45,-7.88 -15.28,-9.9 -19.44,-19.75 7.14,3.26 10.09,9.23 21.71,8.41 15.89,-1.12 28.26,-24.37 56.93,-28.3 1.06,-0.14 1.99,-0.33 3.11,-0.26l4.1 1.06c-10.95,2.59 -23.33,10.4 -29.64,17.24 5.61,-1.79 10.69,-4.41 16.84,-6.38 5.83,-1.87 12.11,-3.44 18.45,-4.7 12.46,-2.47 29.68,-1.4 38.64,4.47l-28.65 -1.06c5.67,3.39 18.94,3.07 26.95,4.36 10.1,1.63 16.6,4.12 24.71,8.01 10.63,5.1 31.72,21.2 32.75,32.34 -7.45,-4.61 -12.98,-11.14 -22.34,-16.06 5.93,11.8 14.73,22.92 15.75,38.31 0.35,5.24 0.47,13.21 -2.87,17.22 -0.08,-6.75 -1.14,-16.99 -5.71,-20.84 7.01,28.46 -15.51,60.72 -45.35,62.04 -27.74,1.23 -49.11,-12.43 -62.73,-33.36 -1.98,-3.03 -3.01,-6.18 -5.41,-9.04 2,11.52 11.53,22.49 19.93,29.82 3.4,2.96 6.68,4.87 9.16,7.6 -48.24,-10.92 -42.28,-48.36 -49.78,-70.23l-0.67 1.61c-0.33,1.43 -0.38,1.15 -0.53,3.01 -0.14,1.67 -0.01,5.6 0.07,7.38 0.57,12.37 4.93,25.9 7.52,36.58 -1.31,-1.2 -0.63,-0.39 -1.93,-2.14l-4.73 -8.71c-5.22,-10.66 -8.92,-21.22 -11.08,-32.69 -1.09,-5.77 0.39,-4.81 -3.19,-6.53 -0.02,8.82 -2.83,30.41 -5.71,37.36l-0.47 -31.04c-6.01,5.94 -9,28.47 -13.17,36.38 -1.16,-15.71 5.09,-33.67 5.88,-48.7 -4.23,-4.2 -15.3,-10.49 -23.68,-9.18 -3.42,40.03 -24.17,33.25 -28.34,50.8 -2.5,10.54 -0.17,14.95 -0.6,23.92 -0.39,8.16 -3.4,10.82 -3.26,23.26 0.11,10.11 -3.32,42.99 4.1,49.33 2.94,2.51 1.06,0.56 4.12,1.98 2.49,1.16 0.41,-0.01 2.47,1.31 6.28,4.02 2.69,1.47 11.16,0.87l4.65 6.36 3.97 -11.42c0.67,2.81 1.29,5.26 2.14,7.74 0.22,0.64 1.29,3.41 1.35,3.55 0.14,0.28 0.28,0.59 0.42,0.87l2.21 3.33 1.77 -9.02c2.83,2.08 4.28,5.67 5.91,7.85 0.98,-4.39 -3.24,-5.72 2.21,-5.71l1.44 0.28c5.75,0.61 10.2,1.58 14.09,-0.07 4.61,-1.95 7.22,-1.73 11.15,-0.14 21.32,-34.33 7.23,-25.87 9.68,-54.57 2.37,4.11 6.88,17.85 8.31,23.08 3.2,11.7 1.33,17.48 -2.38,26.69l3.6 2.44c3.04,1.36 0.99,0.64 4.88,1.24 17.3,2.67 28.26,10.8 41.89,21.38 5.35,4.15 9.51,8.69 14.65,11.33 -1.89,-10.11 -0.37,-17.56 3.5,-25 5.1,-9.77 8.18,-10.89 13.12,-17.42 -22.82,5.56 -19.04,7.39 -28.94,25.09 -5.1,-30.4 24.85,-37.2 48.61,-26.72 22.8,10.06 33.94,23.59 59.69,-0.46 20.48,-19.14 39.39,-9.8 65.59,-19.54 12.06,-4.48 44.39,-29.4 46.68,-39.24 -20,-14.98 -96.45,30.85 -107.42,-26.01 -1.76,-9.13 -2.56,-37.91 -1.05,-46.59 -3.08,0.53 -10.75,5.4 -17.47,6.77 5.44,-5.6 18.67,-11.76 12.81,-24.96 -5.87,-13.23 -46.68,-40.62 -36.6,-80.02l1.75 -4.16c2.19,4.94 2.48,22.27 4.59,29.3 2.37,7.91 7.45,16.03 12.17,21.22 -3.52,-21.52 -8.78,-30.23 -0.41,-55.07 2.59,-7.68 6.96,-15.66 10.62,-22.22 3.89,-6.97 7.82,-14.6 13.21,-20.29 -1.13,5.5 -3.32,9.61 -4.99,15.11 -11.21,36.79 -9.69,43.82 0.6,79.9 2.83,9.93 4.9,21.07 8.72,30.4 2.57,-13.79 -3.53,-27.94 -2.59,-37.92 4.97,7.46 7.34,19.2 9.27,29.9 2.4,13.26 1,26.44 2.84,38.51 6.27,-16.07 4.05,-33.05 7.48,-46.55 5.87,10.18 -1.96,56.04 0.2,61.41 3.69,-12.06 11.97,-35.5 13.13,-48.11 1.42,14.41 -4.5,41.85 -6.69,56.89 5.19,-6.38 10.25,-20.57 13.55,-24.17 -0.38,13.16 -4.59,23.81 -6.69,35.51l3.22 -3.78c1.34,-1.91 1.3,-2.09 2.25,-3.82 4.75,-8.71 7.05,-18.11 10.37,-27.08 0.77,17.2 -7.11,28.63 -10.81,41.56 3.8,-2.67 4.78,-4.94 7.51,-8.63l7.9 -8.98c-2.08,9.38 -6.36,15.92 -9.52,23.58 5.39,-2.99 7.71,-7.82 12.55,-10.75 -2.97,7.58 -7.26,13.28 -9.93,19.43 3.73,-2.48 6.43,-5.55 9.65,-8.97l8.99 -9.8c-1.65,11.02 -6.5,12.68 -10.3,19.69l12.72 -7.82c-1.4,4.29 -1.49,3.65 -3.59,6.72 9,-0.75 13.63,-2.54 24.12,-2.42 -2.7,-7.63 -6.84,-11.92 -10.01,-18.25 7.06,4.79 10.05,16.66 19.35,19.11 -0.2,-6.22 -6.67,-10.96 -9.42,-15.31 -4.92,-7.78 -4.07,-9.63 -10.54,-16.21 -5.17,-5.25 -5.3,-10.03 -9.7,-15.85 -4.19,-5.54 -8.55,-8.23 -11.45,-16.03 7.39,4.21 15.2,15.68 19.09,23.03 1.84,3.49 3.91,5.78 6.13,8.52 4.82,5.98 6.2,11.25 10.59,17.35 2.9,4.04 8.69,12.43 13.64,13.49 -4.25,-9.25 -9.68,-16.4 -14.01,-25.32 -4.42,-9.12 -10.83,-15.77 -16.19,-25.18 -4.73,-8.32 -25.16,-28.82 -32.24,-48.6l52.19 73.69c2.49,5.29 13.18,22.8 16.84,25.59 0.04,-11.55 -1.65,-10.59 -5.89,-18.33 -2.38,-4.34 -5.77,-11.78 -8.75,-15.57 -4.48,-5.7 -7.43,-5.32 -11.23,-13.1 -4.96,-10.15 -1.91,-7.26 -8.98,-15.36 -11.73,-13.45 -18.71,-29.01 -30.77,-42.18 -5.45,-5.96 -7.85,-6.82 -12.07,-13.52 -3.87,-6.14 -3.9,-11.13 -8.65,-15.58 -22.62,-21.2 -22.47,-15.94 -11.76,-49.62 4.69,-14.74 11.82,-42.65 18.47,-54.54l9.97 -14.66c-9.67,3.17 -19.96,4.78 -31.36,6.18 1.92,-3.41 0.31,-1.34 3.2,-3.74 0.43,-0.36 2.98,-1.94 3.65,-2.33 20.1,-11.77 43.81,-17.59 67.58,-20.02 16.54,-1.69 31.77,-1.99 48.58,-1.43 15.76,0.52 33.2,4.66 46.26,4.67 -26.3,-8.45 -74.62,-11.32 -104.74,-8.4 -34.11,3.31 -63.57,13.77 -92.01,24.13 1.58,-3.48 11.26,-9.72 15.09,-12.08 4.28,-2.64 15,-8.45 17.09,-10.71 -10.49,3.17 -20.79,6.92 -31.94,10.46 -12.02,3.83 -22.99,5.84 -35.16,9.19l4.68 -4.43c21.2,-14.74 45.02,-25.31 70.37,-31.83 10.7,-2.75 19.87,-3.5 30.86,-5.74 -10.68,-1.75 -34.67,1.31 -44.97,3.84 -26.14,6.42 -45.44,19.8 -70.55,29.22 -7.07,2.65 -33.35,10.45 -40.49,9.64zm112.27 313.21c8.46,-2.93 11.66,-4.69 22.1,-6.31 5.42,-0.84 20.85,-2.03 24.45,-3.57 6.15,-2.63 12.14,-7.75 16.54,-11.47 3.68,-3.11 13.32,-11.33 15.32,-14.11l-40.2 16.04c-13.98,5.47 -30.43,9.61 -38.21,19.42zm-154.14 25.54c8.58,-9.36 9.38,-15.86 28.26,-24.1 16.06,-7.01 19.59,-12.31 42.33,-11.01 -1.12,-1.1 -0.4,-0.68 -2.21,-1.67 -26.81,-14.78 -69.67,-0.23 -68.38,36.79zm-107.1 -45.12c0,17.76 -6.3,37.81 14.63,35.46 12.93,-1.45 7.33,-21.28 15.34,-27.73 -3.13,10.39 1.25,25 7.65,28.94 12.5,7.7 47.8,0.52 27.91,-36.38 -9.84,-18.25 -26.09,-33.74 -29.03,-50.08 -1.32,-7.35 -2.31,-8.81 -7.84,-11.68 -31.92,-16.58 -24.85,15.71 -24.94,25.03 -0.08,7.71 -1.47,9.86 -2.87,16.58 -1.29,6.17 -0.85,13.18 -0.85,19.87z"/>
    <path class="fil2" d="M504.71 362.69l-3.95 -4.16c-1.39,-1.93 -1.32,-2.33 -2.98,-4.27 -4.67,-5.46 -10.31,-9.26 -14.01,-15.19 -3.34,-5.36 -4.42,-4.6 -7.45,-8.37 -5.21,-6.47 -4.68,-12.81 -9.98,-19.2 -15.2,-18.32 -13.42,-12.02 -24.02,-35.57 -2.89,-6.43 -29.86,-40.07 -37.62,-47.54l-3.12 -2.57c7.31,16.04 26.74,29.78 35.83,55.03 5.2,14.45 17.77,22.33 25,35.84 3.5,6.54 5.13,14.6 9.62,20.74 4.79,6.55 8.29,10.67 14.78,15.61 4.85,3.69 10.79,11.37 12.07,19.93 -4.27,-2.36 -0.18,0.39 -2.75,-2.06 -4.52,-4.32 -7.48,-10.19 -11.59,-14.3 -2.69,-2.69 -4.9,-4.48 -7.15,-7.45 -6.52,-8.61 -12.74,-16.46 -17.5,-26.34 -7.07,-14.66 -17.58,-19.97 -24.76,-34.78 -4.08,-8.43 -3.43,-13.8 -9.66,-20.76 -6.06,-6.77 -23.74,-24.36 -31.04,-29.09 4.05,8.97 23.75,22.39 31.88,42.88 7.03,17.73 3.25,11.73 17.4,28.8 12.67,15.28 8.99,15.02 16.35,27.45 2.87,4.84 4.99,4.24 7.97,7.82 5.89,7.1 0.63,6.02 12.89,17.5 5.27,4.93 8.95,11.19 11.26,19.71 -6.67,-4.49 -7.35,-10.97 -12.61,-15.94 -7.44,-7.03 -7.16,-7.21 -12.2,-15.8 -4.03,-6.87 -8.46,-8.74 -12.69,-15.21 -4.75,-7.26 -4.86,-11.56 -10.6,-18.63 -8.26,-10.19 -17.24,-18.75 -22.96,-33.02 -2.99,-7.47 -5.83,-11.83 -11.16,-16.83l-15.57 -14.17c2.85,7.89 7.93,11.24 13.12,16.61 9.47,9.81 9.37,24.03 21.34,38.27 17.96,21.38 14.26,24.11 31.03,43.17 3.2,3.63 3.04,6.21 5.84,10.03 5.1,6.98 11.26,7.34 13.9,16.49l4.24 10.39c1.09,2.72 3.62,8.23 1.19,11.92l-6.21 -15.45c-1.25,-2.51 -1.25,-3.78 -2.4,-6.21 -1.94,-4.09 -10.29,-10.71 -13.97,-16.38 -2.49,-3.83 -2.56,-6.56 -4.83,-9.76 -1.88,-2.64 -5.53,-5.15 -8.03,-7.75 -9.43,-9.79 -10.55,-18.37 -26.2,-34.59 -12.27,-12.72 -5.09,-26.33 -23.43,-37.42 -7.41,-4.48 -2.81,-0.98 -7.62,-7.02l-8.96 -7.72c2.97,9.17 13.55,15.46 18.76,23.51 5.18,8.02 8.47,21.23 13.44,27.93l19.11 22.23c3.56,4.37 4.7,8.69 7.65,13.01 2.61,3.83 6.31,7.71 9.59,11.1 9.32,9.63 -0.36,6.9 18.05,23.27 9.85,8.76 13.43,35.24 12.2,49.43 -0.7,8.13 0.53,10.83 0.26,18.49 -0.56,15.81 -2.51,15.95 -1.12,37.58 2.81,-2.48 3.47,-6.66 4.93,-10.59 2.02,-5.44 3.24,-5.91 5.36,-9.42 -0.63,13.13 -11.94,29.18 -0.32,45.32 10.22,14.2 27.55,8.74 40.71,0.09 25.2,-16.56 41.29,-30.95 51.91,-63.6 9.58,-29.45 9.61,-77.9 -22.68,-81.74 -24.92,-2.97 -44.61,13.44 -56.96,30.04 -4.2,5.65 -6.39,12.89 -10.47,17.78 -7.19,-38.94 41.6,-74.83 81.17,-60.48 6.4,2.32 9.17,5.56 13.27,8.6 -1.78,-26.72 -34.25,-58.69 -48.25,-80.69 -5.83,-9.16 -16.07,-22.6 -18.59,-32.49 -2.42,-9.49 -4.12,-10.75 -9.51,-16.61 2.26,5.61 4.79,10.2 6.7,15.88 13.04,38.9 53.65,80.06 60.03,102.16l-24.33 -27.27c-3.44,-6.17 -31.2,-43.05 -42.03,-60.13 -3.87,-6.1 -4.19,-11.66 -7.41,-18.14 -3.14,-6.31 -5.38,-10.8 -7.74,-18.4 -3.37,7.35 23.86,58.86 26.93,63.71 11.88,18.76 27.45,35.11 37.05,56.13 -7.3,-4.89 -24.82,-28.24 -31.85,-36.98 -19.18,-23.88 -21.95,-31.11 -35.37,-58.32l-10.78 -14.29c1.89,5.65 4.82,8.85 7.42,14.02 7.36,14.59 11.11,32.32 20.62,45.06 6.51,8.72 35.16,41.82 36.51,48.92 -8.8,-5.85 -17.34,-15.42 -24.03,-23.79 -8.09,-10.12 -14.93,-16.6 -22.04,-26.58 -8.16,-11.44 -2.61,-18.32 -16.08,-32.56 -3.87,-4.09 -6.82,-8.97 -9.56,-14.84 -2.37,-5.09 -4.7,-14.42 -8.45,-17.15 11.12,32.34 16.76,32.51 22.28,45.99 2.94,7.16 2.62,10.92 4.6,18.57 3.76,14.56 32.06,32.6 38.52,53.42l-24.12 -24.1c-14.57,-13.43 -17.12,-27.85 -26.58,-43.97 -2.82,-4.81 -6.31,-9.58 -9.58,-14.77 -5.61,-8.89 -12.84,-20.4 -17.67,-29.99 6.05,22.56 21.05,41.06 30.98,61.65 8.28,17.15 5.07,19.86 16.47,29.78 6.81,5.93 16.37,16.05 19.53,26.73 -4.85,-1.6 -9.43,-9.11 -12.78,-12.82 -26.06,-28.85 -18.07,-29.23 -32.13,-48.05 -11.74,-15.71 -11.76,-20.29 -20.52,-33.06 -5.56,-8.11 -14.51,-28.52 -20.43,-33.14 2.5,5.87 6.14,9.75 8.8,16.82 3.71,9.82 3.9,9.69 8.65,18.07 3.6,6.34 4.26,11.72 8.15,18.55 6.11,10.71 16.67,20.06 20.57,31.87 3.59,10.9 0.84,8.91 8.7,17.94 3.93,4.51 7.94,10.74 11.76,15.1 4.22,4.81 10.5,8.14 10.95,15 -4.75,-3.15 -10.24,-9.73 -14.68,-14.93 -2.51,-2.94 -4.44,-5.75 -6.84,-9.02 -2.75,-3.74 -4.64,-4.74 -7.7,-8.12 -6.27,-6.95 -3.52,-16.54 -24.54,-37.43 -9.26,-9.21 -4.43,-9.96 -9.71,-20.76 -4.51,-9.24 -8.56,-11.16 -14.09,-17.52 -8.43,-9.71 -11.2,-24.09 -25.47,-38.14 1.79,4.98 8.55,13.91 11.92,18.83 4.54,6.64 6.65,13.34 10.59,19.84 4.06,6.69 8.5,10.95 12.28,18.18 4.53,8.66 3.2,15.16 9.39,20.95 7.74,7.25 7.5,8.31 12.99,17.43 2.01,3.34 3.93,4.97 5.95,8.68 6.99,12.88 1.65,10.9 17.14,29.08 5.42,6.37 11.46,8.41 13.82,18.5zm25.13 57.14c4.08,-6.39 11.33,-10.95 19.14,-3.62 5.99,5.62 5.24,13.56 8.44,20.55 0.07,0.16 0.23,0.52 0.41,0.74 3.91,-14.06 -2.18,-29.73 -7.14,-38.53 15.94,-1.17 13.28,2.56 15.09,17.42 3.31,27.08 -1.17,44.77 -20.65,62.27 -3.4,3.05 -6.85,4.75 -9.37,7.82 13.66,-1.99 26.94,-15.12 32.11,-25.27 7.09,-13.93 10.45,-29.49 10.88,-47.72 0.49,-20.66 -0.48,-37.2 -23.35,-35.38 -19.84,1.58 -40.08,22.14 -43.13,43.41 -1.69,11.81 4.31,13.87 5.41,22.44 2.11,16.41 -13.8,18.78 -13.41,30.3 0.18,5.16 2.63,7.2 8.12,5.97 6.58,-1.47 9.98,-9.41 17.18,-12.27 10.86,-4.32 11.92,-2.67 16.74,-12.55 4.2,-8.59 9.62,-36.81 -16.47,-35.57z"/>
    <path class="fil2" d="M415.11 824.65c3.49,3.53 7.07,5.31 7.46,12.16 -7.26,5.9 -20.48,4.28 -27.17,9.73 11.68,7.22 14.47,-5.71 36.79,19.84l28.08 29.07c7.99,7.41 13.02,9.98 23.36,14.94 2.72,-3.01 6.38,-9.31 8.63,-12.6 35.31,-51.72 128.68,-133.26 124.95,-206.93 -2.17,4.4 -2.82,10.77 -4.17,16.2 -11.35,45.49 -63.65,103.16 -94.71,137.64l-20.31 22.32c-5.21,5.57 -15.21,17.94 -20.46,21.96 3.62,-13.68 53.85,-71.03 66.37,-86.75 17.15,-21.53 50.12,-70.91 54.6,-97.53 -7.22,12.11 -6.16,14.54 -17.98,30.74 -15.19,20.82 -52.36,67.8 -76.03,74.4 2.3,-3.59 10.43,-9.74 14.02,-13.56 10.98,-11.69 27.98,-33.19 37.41,-46.47 12.48,-17.59 34.7,-52.63 39.75,-73.99l-8.91 14.77c-12.66,19.39 -14.75,22.08 -29.82,40.72 -8.49,10.5 -36.85,40.29 -48.01,45.8 1.45,-2.72 40.29,-52.65 48.97,-66.66 8.57,-13.84 38.07,-58.8 34.75,-79.92 -10.16,28.8 -10.92,32.44 -32.63,58.88 -51.05,62.21 -58.83,66.89 -116.48,115.91 -20.39,17.34 -16.66,11.69 -28.46,19.33z"/>
    <path class="fil2" d="M494.63 535.83c3.88,30.6 10.92,40.17 7.11,80.75 -2.43,25.9 -10.82,48.93 -19.86,68.18 15.7,-9.24 26.98,-50.23 31.17,-67.87l2.18 -5.71c-0.16,18.48 -9.48,47.24 -16.75,60.36 -12.25,22.14 -23.36,29.99 -24.7,32.53 -0.72,1.36 -4.28,13.46 -4.68,15 4.85,-3.06 8.51,-11.28 14.82,-15.02 -3.24,9.29 -13.08,21.91 -18.31,31.96 -2.96,5.69 -5.31,10.27 -8.36,15.98 -3.1,5.8 -6.82,10.95 -9.33,16.65 13.56,-8.45 66.25,-92.61 67.08,-93.44 -3.33,20.2 -49.55,77.81 -58.61,93.92 0.67,-0.99 18.16,-17.67 21.58,-20.65 27.34,-23.78 63.19,-62.05 82.36,-92.87 11.25,-18.09 8.6,-11.22 3.96,-30.94l-11.61 -77.12c-6.41,4.36 -15.08,15.41 -25.37,22.29 1.56,-3.62 0.66,-1.9 3.04,-5.05 7.14,-9.44 20.41,-21.63 19.83,-30.55 -4.26,1.23 -8.4,10.95 -21.94,17.88l19.19 -28.53c-7.63,-0.72 -20.45,26.58 -52.8,12.22z"/>
    <path class="fil2" d="M135.76 170.26c-7.51,-15.71 -22.25,-34.1 -19.12,-60.88 2.98,6.38 1.31,13.8 7.42,28.65 0.54,1.31 1.16,3.1 1.83,4.26l1.02 1.58c1.37,1.83 0.38,0.74 2.03,2.13 -7.95,-24.49 -11.69,-42.06 0.08,-66.39 8.52,-17.62 22.4,-32 40.23,-40.31 -20.44,-0.37 -77.24,41.25 -55.68,98.26 4.38,11.57 14.01,27.63 22.18,32.71z"/>
    <path class="fil2" d="M192.66 148.31c8.44,-5.62 18.3,-18.83 28.33,-26.64 25.19,-19.61 55.11,-41.18 87.28,-49.04 7.56,-1.85 18.05,-1.8 24.27,-3.42 -8.88,-5.44 -38.51,0.28 -48.72,3.35 -26,7.81 -50.02,23.99 -67.41,43.33 -7.24,8.05 -18.79,21.84 -23.75,32.43z"/>
    <path class="fil2" d="M148.67 164.17c-1.97,-30.51 -6.27,-55.36 15.59,-85.88 13.5,-18.84 32.87,-30.91 55.01,-37.5l10.41 -3.43c-33.53,1.44 -61.17,19.86 -75.34,38.28 -20.42,26.56 -17.92,56.03 -5.68,88.53z"/>
    <path class="fil2" d="M175.45 161.1c-0.89,-8.46 11.68,-31.07 15.64,-37.72 16.77,-28.13 46.02,-49.51 76.78,-60.74l16.64 -4.04c0.68,-0.12 2.49,-0.44 3.11,-0.6 0.33,-0.08 0.69,-0.19 0.99,-0.27 0.29,-0.08 0.73,-0.24 0.96,-0.31 0.23,-0.07 0.65,-0.18 0.95,-0.33 -36.58,-5.8 -62.09,12.73 -79.08,29.45 -16.97,16.71 -38.07,49.07 -35.98,74.56z"/>
    <path class="fil2" d="M218.34 150.5c3.25,-2.21 8.84,-8.29 12.64,-11.63 4.73,-4.15 8.19,-7.1 13.1,-11.14 26.81,-22.03 69.03,-41.71 107.37,-40.15 -8.25,-4.47 -38.47,-2.29 -46.28,-0.95 -22.49,3.86 -50.1,19.71 -65.48,34.27 -5.17,4.89 -18.53,21.4 -21.36,29.59z"/>
    <path class="fil2" d="M435.51 110.62c-4.66,-9.16 -29.14,-31.15 -38.54,-38.69 -19.86,-15.92 -60.26,-37.59 -86.44,-41.69 4.61,3.71 11.03,5.89 16.99,8.9l48.66 27.99c22.2,14.01 24.96,14.56 45.07,31.56 4.93,4.17 9.37,9.22 14.26,11.93z"/>
    <path class="fil2" d="M467.99 118.41c-2.82,-7.26 -15.98,-22.38 -20.78,-27.42 -20.28,-21.25 -58.5,-52.96 -85.44,-58.36 3.71,3.02 19.36,11.51 28.85,18.84l77.37 66.94z"/>
    <path class="fil2" d="M486.47 117.14c-9.4,-26.76 -57.18,-71.76 -87.11,-78.67l21.94 18.84c7.75,6.19 15.05,12.2 23.22,18.16 9.45,6.89 28.91,25.39 36.44,35.26l5.51 6.41z"/>
    <path class="fil2" d="M161.62 136.11c4.55,-12.86 1.82,-13.49 11.46,-29.49 15.99,-26.54 36.35,-49.91 71.32,-57.04 -13.76,-4.64 -45.06,11.37 -58.37,24.95 -10.36,10.57 -26.45,39.69 -24.41,61.59z"/>
    <g>
     <path class="fil2" d="M396.01 553.54c-2,-3.43 -0.26,-12.2 0.18,-18.41 0.46,-6.47 1.77,-12.31 0.43,-18.85 -3.35,9.62 -9.02,50 -13.67,58.46 2.09,-28.18 2.4,-31.57 2.08,-59.65 -2.86,5.12 -6.15,33.51 -7.1,39.59 -2.19,13.97 -3.39,30.15 -13.83,34.03 2.93,-11.83 7.31,-20.88 7.61,-35.29 0.21,-9.99 0.01,-30.29 -3.24,-38.52l-0.21 41.07 -8.71 -29.26c1.88,27.52 2.92,35.95 -3.86,65.35 -1.94,8.39 -3.91,9.08 0.81,15.41 2.61,3.5 5.78,9.09 8.95,11.51 0.18,-7.31 5.73,-27.21 11.15,-33.01 -0.67,6.65 -4.7,23.53 3.54,27.16 -3.01,-9.78 3.87,-30.09 8.66,-36.48 -0.19,6.02 -5.47,20.37 6.07,29.22 -1.28,-7.26 -3.56,-11.29 -2.63,-19.62 0.28,-2.49 3.02,-16.01 3.81,-17.51 1.82,4.16 -0.18,13.38 2.31,20.21 0.91,2.49 0.8,1.79 1.29,2.62 -0.1,-29.04 5.11,-45.6 12.46,-73.22 1.85,-6.96 4.85,-13.7 6.12,-19.62 -6.61,4.53 -20.11,45.08 -22.21,54.81z"/>
     <path class="fil2" d="M182.34 649.47l27.36 20.46c-3.61,-6.23 -11.28,-10.33 -13.1,-17.04 15.05,-9.49 20.17,7.28 37.44,12.3 -5.19,-7.45 -13.05,-10.63 -17.91,-16.94 1.6,-3.81 21.17,-17.07 25.6,-20.62 -17.2,0.21 -17.47,10.6 -32.16,13.84 1.57,-2.52 -0.05,-0.54 2.54,-3.18l7.77 -6.82c1.98,-1.9 6.17,-5.44 6.68,-8.03 1.11,-5.61 -0.51,-3.55 -1.02,-4.23 -6.84,10.37 -17.85,19.61 -29.49,24.98 -2.22,1.02 -4.91,2.1 -6.96,2.77l-6.75 2.51z"/>
     <path class="fil2" d="M122.55 646.99c-2.24,-6.45 -5.88,-9.2 -8.06,-14.67 15.26,7.71 19.97,8.73 40.68,8.71 7.88,-0.01 16.2,0.67 23.97,-0.52 7.8,-1.2 13.62,-4.22 19.71,-5.57 -3.29,4.79 -3.6,2.18 -7.24,6.01 10.49,-0.91 22.52,-8.7 25.91,-16.25l-12.34 6.98c1.4,-2.9 2.81,-4.06 5.86,-6.6 6.79,-5.66 5.58,-3.09 6.05,-7.24 -4.3,-3.12 -2.87,-2.45 -8.85,-2.51l-1.71 6.18c-0.46,-0.33 -0.64,-1.11 -0.73,-0.9 -0.52,1.18 0.89,-3.74 -6.27,-2.47 -0.23,0.04 -3.49,1.06 -3.89,1.22 -5.35,2.2 -3.75,1.36 -7.51,14.44 -0.22,-0.28 -0.39,-1.06 -0.43,-0.9l-0.95 -4.1c-0.31,-2.63 0.06,-3.57 -0.55,-6.7l-18.51 1.02 -1.91 11.51 -1.92 -11.07 -19.61 0.41 -0.25 8.31 -3.36 -9.44 -17.01 0.3 1.58 11.71c-5.57,-5.52 0.5,-14.83 -16.18,-19.35 -0.04,13.75 6.14,26.01 13.51,31.51z"/>
     <g>
      <path class="fil2" d="M141.91 611.63c6.84,2.4 15.92,2.25 23.86,1.01 1.77,-12.56 -1.9,-23.72 -2.83,-21.96l-8.2 -2.79c-3.37,-0.75 -7.88,-1.47 -11.4,-1.34 -2.07,8.41 -1.65,15.83 -1.43,25.08z"/>
      <path class="fil2" d="M138.06 610.61l-0.45 -20.26c-2.18,-9.81 -15.62,-6.23 -16.49,-5.36 -2.27,2.31 -1.46,18.14 -0.26,20.95 1.89,4.44 12.48,7.24 17.19,4.67z"/>
      <path class="fil2" d="M169.78 611.76c7.28,2.44 16.99,0.89 22.99,-1.18l0.09 -9.77c-5.05,-3.25 -16.37,-7.23 -22.84,-8.29 -0.33,6.34 -1.42,13.08 -0.24,19.24z"/>
     </g>
    </g>
    <path class="fil2" d="M282.71 558.08c-2.65,-17.99 -7.17,-25.3 0.37,-44.7 -7.21,3.94 -16.55,12.8 -18.62,23.01 -1.41,6.94 2.64,8.4 6.75,11.67 4.19,3.34 7.66,7.15 11.5,10.02z"/>
    <path class="fil3" d="M80.25 641.71c-9.62,9.42 -28.98,38.03 -32.85,49.41 -1.49,-13.66 19.21,-43.94 32.85,-49.41zm209.07 -66.35c11.94,15.54 20.44,30.53 11.23,49.73 -1.57,-19.52 -5.75,-30.61 -11.23,-49.73zm-79.41 -39.3c9.94,6.57 48.35,33.76 38.77,51.33 -5.69,-20.12 -22.87,-30.94 -38.77,-51.33zm2.16 -10.35c25.83,12.54 78.75,45.45 78.16,75.86l-2.35 19.75 -1.42 -19.83c-2.55,-22.54 -54.19,-61.07 -74.39,-75.78zm-110.67 10.37c-13.42,15.12 -27.32,41.51 -12.57,60.7 -9.13,3.18 -25.02,-45.79 12.57,-60.7zm75.86 -6.58c39.73,43.51 29.19,53.64 89.68,73.5 -12.2,0.46 -35.13,-9.22 -45.25,-15.92 -16.02,-10.61 -33.76,-40.82 -44.43,-57.58zm-6.42 5.47c2.41,2.8 13.82,14.54 13.08,19.03 -0.8,-0.12 -0.46,0.02 -1.07,-0.35l0.1 0.11c-11.49,-10.36 -7.46,-4.09 -12.12,-18.79zm-14.27 -0.24c13.81,29.95 20.97,43.18 49.68,61.01l-0.03 -0.01c0.57,0.33 0.3,0.12 0.78,0.62 -0.34,0.06 -0.69,0.18 -1.03,0.05 -29.87,-11.65 -42.92,-30.94 -49.4,-61.66zm-13.08 5.71c8.48,20.77 8.42,17.97 20.69,34.25 -1.44,0.07 -1,0.21 -2.46,-0.51 -14.5,-7.12 -17.36,-19.69 -18.23,-33.75zm-10.23 3.81c2.78,19.23 2.78,19.99 12.85,34.97 -15.62,-9.34 -16.02,-17.89 -12.85,-34.97zm-11.66 20.69c-2.02,10.24 0.41,5.82 -7.61,13.08 2.77,-10.25 0.17,-5.92 7.61,-13.08zm-0.24 -26.64c-3.79,16.22 -6.46,24.9 -19.74,36.4 -1.59,-1.09 17.87,-33.28 19.74,-36.4zm329.03 -50.44c5.88,14.97 8.05,21.1 11.37,37.01 -9.52,-15.51 -10.88,-18.75 -11.37,-37.01zm-37.01 63.09c9.51,23.79 7.62,16.49 18.94,35.6 0.35,0.58 8.09,15.37 9.82,20.35 -2.99,-2.33 -2.84,-2.49 -4.88,-5.68 -16.96,-26.56 -17.74,-17.29 -23.88,-50.28zm10.7 -32.33c8.82,50.02 15.17,28.19 27.22,61.57 3.84,10.64 8.41,36.73 6.44,48.34 -2.41,-14.6 -5.07,-33.48 -10.46,-46.9 -14.26,-35.5 -21.71,-14.54 -23.21,-63.01zm12.93 -15.16c7.35,16.35 13.56,28.66 21.56,44.53 2.79,5.52 2.19,4.39 4.07,10.09 -16.06,-19.44 -20.94,-30.02 -25.64,-54.62zm-31.19 80.3c12.72,17.9 16.44,15.16 26.04,26.53 12.57,14.89 22.46,55.38 12.15,75.37 -0.16,-1.01 -0.23,-0.81 -0,-1.75 3.17,-12.98 2.59,-16.96 -0.3,-30.51 -12.18,-57.05 -22.72,-35.87 -37.88,-69.64zm-0.23 32.54c27.16,25.82 36,57.49 20.09,93.33 -0.52,1.17 -0.46,1.06 -0.89,2.24 -0.54,-1.33 -0.41,-1.27 -0.06,-2.65 10.32,-40.74 3.54,-60.78 -19.14,-92.92zm-10.17 9.71c7.59,15.15 9.6,19.26 20.11,32.76 -16.92,-11.39 -17.14,-12.55 -20.11,-32.76zm-14.24 18.07c8.46,28.33 39.45,12.3 37.26,57.57 -2.02,41.86 0.29,-22.21 -1.11,19.25 -2.65,-13.93 -0.79,-18.12 -2.47,-29.12 -4.31,-28.12 -35.87,-26.41 -33.68,-47.7zm13.56 37.28c9.25,18.93 23.59,59.46 5.2,76.82 -0.2,-0.6 -0.13,-0.86 0.19,-1.45 11.54,-21.64 -0.98,-52.44 -5.38,-75.37zm-32.99 46.32c10.68,27.08 11.44,14.83 13.71,53.74 0.66,11.24 -2.73,51.48 13.66,56.04 2.34,0.65 3.96,-0.27 6.07,-1.1 -1.7,2.06 -3.66,3.04 -6.39,2.61 -20.79,-3.26 -17.43,-56.43 -18.39,-70.47 -2.11,-30.92 -4.25,-17.29 -8.67,-40.82zm6.55 -81.34c14.65,40.68 13.38,29.96 12,72.77 -0.11,3.49 -0.23,5.4 1.55,8.12 -3.96,0.32 -3.92,-12.12 -3.93,-13.58 -0.32,-32.11 -4.18,-37.17 -9.62,-67.31zm-44.74 -24.4c16.78,24.99 31.36,43.51 32.38,75.11 0.08,2.46 -0.19,2.92 -0.74,5.33 -8.89,-43.74 -16.15,-43.25 -31.63,-80.43zm-21.46 6.55c13.31,14.05 33.7,30.47 30.51,51.93 11.87,14.67 15.01,32.59 19.49,63.29 -4.14,-7.94 -3.05,-10.87 -5.71,-21.71 -9.42,-38.34 -25.49,-49.66 -56.15,-71.46 20.97,10.59 33.86,19.39 42.33,29.82 -1.92,-4.13 -0.93,-6.44 -2.3,-9.66 -4.36,-10.24 -20.37,-28.49 -28.16,-42.22zm-41.84 19.14c43.78,36.96 66.24,51.97 60.97,115.7 -0.72,8.71 -1.87,19.08 -7.13,26.4l0.07 -0.89c3.95,-16.71 4.85,-17.7 4.37,-36.18 -1.6,-61.41 -23.32,-65.74 -58.28,-105.02zm-6.05 16.57c19.38,34.91 24.4,21.23 39.21,42.47 10.03,14.38 14.48,38.7 16.23,55.66 -4.78,-16.41 -10.25,-38.97 -20.12,-53.09 -16.71,-23.89 -22.07,-8.11 -35.31,-45.04zm0.96 35.68c29.31,19.64 45.31,57.5 43.75,92.41l-1.05 12.08c-4.05,-45.59 -9.73,-69.99 -42.69,-104.5zm-34.41 -8.6c4.7,25.6 44.93,28.19 60.14,74.41 2.7,8.21 2.19,24.75 2.63,34.87 -7.22,-25.98 1.55,-23.2 -14.7,-50.8 -12.34,-20.95 -52.29,-42 -48.06,-58.48zm119.47 48.74c2.93,34.72 3.95,25.2 13.4,53.06 6.23,18.37 8.55,60.36 0.62,77.88 -0.26,-0.59 -0.24,-0.6 -0.13,-1.23 3.68,-21.64 2.21,-34.12 -0.73,-55.65 -4.87,-35.72 -15.99,-32.73 -13.16,-74.06zm-9.24 42.37c1.43,19.12 0.31,19.99 6.15,38.63 9.34,29.8 6.5,38.41 0.54,67.15 -1.36,-6.2 2.75,-24.77 1.17,-38.98 -3.76,-33.87 -12.03,-28.53 -7.86,-66.8zm-23.46 31.57c12.15,26.91 21.4,49.51 10.47,79 -2.45,6.62 -21.24,37.61 -10.43,42.43 1.59,0.11 0.8,0 2.49,0.37 -19.28,5.59 4.26,-43.92 5.26,-49.06 6.59,-33.96 2.12,-39.64 -7.78,-72.73zm-59.12 -64.43c16.57,28.95 8.68,12.94 13.28,47.7 5.21,39.31 37.07,31.91 38.52,82.42 0.02,0.73 -0,0.6 -0.25,1.27 -1,-3.06 -2.02,-8.53 -2.37,-10.05 -11.63,-50.32 -38.13,-25.88 -40.27,-85.77 -0.8,-22.44 -1.27,-15.42 -8.9,-35.56zm-53.35 -59.15c9.98,17.3 7.46,15.17 21.89,26.58 15.68,12.4 12.92,47.69 16.19,68.37 0.04,0.24 -0.07,0.37 -0.18,0.57 -0.23,-0.31 -0.15,-0.14 -0.27,-0.49l0.01 0.04 -3.89 -13.85c-2.82,-13.15 -3.12,-33.11 -9.12,-45.11 -6.77,-13.53 -12.82,-3.79 -24.63,-36.12zm1.26 22.99c8.2,43.39 27.98,19.52 28.29,76.7 0.01,1.11 -1.15,47.38 9.61,43.83 -0.28,0.59 -0.57,0.98 -1.25,1.17 -12.19,3.37 -12.7,-56.17 -12.83,-57.99 -2.79,-38.03 -23.52,-26.68 -23.82,-63.7zm45.48 105.11c8.36,35.56 31.16,19.18 36.44,64.5 1.25,10.72 0.64,11.91 -0.06,23.18l-1.57 -12.36c-7.73,-56.28 -36.01,-42.43 -34.82,-75.32zm37.9 112.44c-1.86,8.08 -10.96,45.53 -27.27,39.87 -0.62,-0.22 0.05,-0.14 -0.78,-0.2 0.03,-0.35 0.04,-0.53 0.45,-0.63 14.28,-3.51 20.14,-25.33 27.6,-39.04zm-19.46 -41.69c0.27,32.54 1.96,33.46 -16.03,60.6 -5.14,7.75 -5.42,9.05 -7.72,17.98 -0.63,-9.31 0.5,-11.69 5.04,-19.84 16.33,-29.29 13.38,-25.8 18.71,-58.75zm-21.98 -36.13c5.03,20.33 4.17,32.83 2,53.07 -3.8,35.42 -29.87,44.43 -21.12,73.91 1.02,3.43 1.93,6.13 4.72,8.21 -1.47,0.26 -2.73,-1.18 -3.51,-2.25 -14.08,-19.43 -0.2,-37.63 7.49,-53.13 11.31,-22.81 12.61,-55.25 10.43,-79.8zm-18.44 -1.26c6.08,33.15 9.97,50 -4.05,81.5 -9.47,21.27 -12.04,23.95 -12.62,48.37 -4.02,-21.47 1.32,-31.03 8.85,-49.98 13.54,-34.07 9.2,-44.27 7.82,-79.89zm-9.85 16.17c5.03,22.95 6.04,34.1 -8.09,53.82l0.96 -4.53c7.56,-24.09 6.02,-24.49 7.13,-49.29zm-28.8 91.72c-0.49,34.38 -0.07,37.01 -15.92,68.22 0.69,-6.29 0.06,-3.46 2.06,-9.58 7.9,-24.19 8.77,-34.53 13.86,-58.64zm-61.91 26.03c1.63,13.8 2.78,29.38 -3.79,42.45 -2.24,-5.46 2.48,-35.52 3.79,-42.45zm17.18 -125.08c-2.11,48.88 -12.54,38.04 -19.76,71.42 -3.4,15.72 -2.11,29.34 4.09,43.8 -5.69,-7.64 -6.71,-9.91 -8.25,-19.88 -3.83,-24.8 2.16,-33.16 11.95,-53.56 8.27,-17.24 8.41,-22.87 11.96,-41.78zm5.56 53.57c-11.2,32.29 -11.77,32.44 -5.55,63.47 2.13,10.62 3.25,31.22 -1.52,40.88 -0.19,-0.35 -0.21,-0.31 -0.27,-0.65 -1.74,-9.23 3.1,-18.47 -2.13,-39.11 -7.48,-29.46 -5.31,-36.5 9.48,-64.6zm26.03 -16.68c-0.73,36.27 -6.96,27.72 -16.28,60.25 -0.69,2.42 -4.87,15.45 -2.17,18.08 -4.58,2.43 -1,-18.61 -0.96,-18.81 4.2,-21.02 4.49,-16.53 12.58,-33.08 3.13,-6.41 5.23,-19.48 6.83,-26.43zm27.04 -137.96c5.59,38.84 5.34,59.21 -2.77,97.55 -4.91,23.23 -2.57,30.65 -4.92,51.55 -3.44,30.65 -17.4,31.37 -24.14,60.89 -4.92,21.58 -2.04,23.48 -14.4,42.79 -1.24,1.93 -2.03,4.68 -4.06,5.96 1.77,-2.79 2.57,-5.53 4.64,-8.92 8.52,-14 7.83,-24.78 10.94,-40.42 5.94,-29.86 19.9,-31.34 22.63,-60.7 2.11,-22.68 -0.31,-27.52 5.41,-52.06 9.35,-40.14 8.26,-56.21 6.66,-96.64zm-7.33 44.22c-0.27,19 -0.33,29.06 -8.84,46.74 -0.8,-9.14 5.94,-37.33 8.84,-46.74zm-9.1 -72.77c2.75,35.97 -0.45,40.7 -8.6,74.17 -4.7,19.28 -2.5,35.75 -3.27,55.31 -0,0.06 0.47,0.37 0.5,0.4 -0.61,0.19 -1,0.1 -1.08,-0.59 -3.17,-26.15 -4.53,-41.54 2.61,-67.28 7.53,-27.1 7.32,-34.38 9.84,-62.01zm-12.89 18.19c-5.94,27.67 -8.26,30.67 -8.32,59.84 -0.04,21.87 3,47.33 -13.66,63.97 6.32,-14.83 9.02,-13.08 9.7,-32.71 1.65,-48.12 -5.45,-42.65 12.29,-91.1zm8.09 -69.23c-5.38,58.87 -22.41,51.5 -34.27,98.1 -7.25,28.48 2.35,36.45 0.92,64.63 -0.71,-6.02 -1.83,-16.2 -2.9,-21.64l-3.64 -14.68c-3.19,-22.77 5.4,-46.87 16.67,-66.31 16.97,-29.29 15.45,-24.17 23.23,-60.08zm-13.64 -5.05c-1.15,42.63 -3.41,33.58 -20.54,67.97 -11.05,22.17 -10.28,35.57 -8.26,59.38 -7.04,-29.83 -5.6,-45.23 10.29,-71.85 15.77,-26.42 12.78,-24.55 18.52,-55.5zm-14.91 -3.79c-4,34.75 -6.95,29.79 -23,60.09 -4.83,9.12 -4.19,13.14 -3.54,23.04 -6.2,-17.4 -0.11,-24.56 9.13,-41.23 11.19,-20.19 10.12,-19.83 17.4,-41.9zm-33.35 132.91c-1.51,13.57 -2.88,43.86 -6.4,54.62 -4.01,12.27 -6.96,16.82 -10.53,30.78 0.48,-13.5 -0.53,-8.6 3.39,-21.76 7.33,-24.59 5.78,-38.77 13.54,-63.65zm11.62 25.01c-2.87,43.88 -2.6,33.98 -20.15,71.45 -5.44,11.62 -11.5,29.81 -6.89,42.5 -0.27,0.33 -0.98,-0.76 -1.04,-0.86 -9.02,-15.18 4.5,-45.21 11.72,-59.11 14.02,-26.97 10,-26.27 16.35,-53.99zm-45.23 86.42c-2.96,8.38 -8.76,29.85 -1.66,37.07 7.48,7.6 12.06,35.78 7.98,45.31 -0.14,-8.95 -2.09,-16.68 -4.15,-25.41 -4.48,-19.04 -7.19,-13.47 -9.89,-21.03 -4,-11.21 1.59,-26.75 7.72,-35.93zm3.54 -54.07c-2.85,17.32 -2.85,20.91 -11.34,36.49 -8.5,15.6 -17.59,29.62 -14.86,49.46 0.51,3.68 1.85,4.95 4.98,6.28 -6.54,1.28 -7.65,-8.2 -7.91,-12.38 -1.29,-20.61 4.68,-29.64 14.3,-45.43 8.07,-13.24 9.76,-19.8 14.83,-34.42zm-12.38 -22.24c-3.08,37.45 -12.09,23.71 -27.66,56.3 -3.15,6.6 -4.36,10.54 -4.93,17.73 -3.43,-11.56 4.6,-27.54 10.87,-36.79 14.9,-22 9.88,0.88 21.73,-37.24zm11.59 -62.35c-9.32,27.62 -7.97,21.25 -24.96,42.74 -7.63,9.65 -12.41,22.23 -11.91,34.6 -0.03,-0 -0.03,-0 -0.06,-0l-0.01 0.01c0.3,0.09 0.12,0.02 0.55,0.24 -2.7,1.85 -2.29,-8.54 -2.29,-8.63 0.92,-19.78 8.47,-26.01 19.91,-39.42 8.58,-10.06 12.28,-18 18.77,-29.52zm-13.9 -8.59c-16.65,20.51 -29.49,37.34 -28.3,65.44 -0.76,-0.44 -0.91,-0.77 -1.05,-1.7 -4.32,-29.56 6.77,-46.54 29.35,-63.74zm4.55 -32.59c-9.4,15.01 -15.25,16.5 -23.94,29.68 -3.29,4.99 -25.35,39.86 -17.5,47.38 -6.98,2.51 -0.4,-22.85 -0.4,-22.85 10,-28.64 22.88,-35.34 41.84,-54.22zm59.37 -68.56c-1.61,46 -19.22,43.51 -22.22,75.3 -2.51,26.6 1.89,25.18 -10.59,50.45 -3.11,6.3 -13.95,29.45 -1.18,32.48 -1.6,0.27 -3.01,0.55 -4.37,-0.65 -10.01,-8.88 3.33,-33.44 6.55,-41.05 9.81,-23.17 -2.53,-40.24 13.72,-67.38 12.81,-21.4 13.71,-24.5 18.09,-49.16zm-16.85 8c-10.53,32.72 -20.19,29.43 -23.82,70.96l-0.46 9.3c-7.32,-39.55 6.97,-49.73 24.28,-80.26zm-14.57 -5.14c-3.13,9.17 -6.51,17.54 -9.71,26.56 -1.61,-14.07 -0.28,-16.55 9.71,-26.56zm-18.85 -2c-8.4,11.65 -23.16,28.95 -26.85,41.99 -3.58,-15.46 15.89,-33.67 26.85,-41.99zm-49.42 67.12c28.67,-4.84 28.16,-4.01 47.89,-28.19 0.83,-1.02 0.44,-0.6 1.52,-1.52 -0.11,1.12 -0.02,1.18 -0.49,2.16 -12.32,25.84 -22.84,30.28 -48.93,27.55z"/>
   </g>
  </g>
  <g id="_1684930689120">
   <path class="fil4" d="M632.82 409.89c2.05,-2.74 4.07,-5.01 6.06,-6.81l-2.49 0.2c-2.84,0.23 -6.07,1.08 -9.69,2.55l0.08 -1.41 -14.2 1.17 3.37 -56.34 -2.24 1.94 -4.74 2.49c8.53,-40.18 13.99,-80.22 16.38,-120.12 0.53,-8.92 0.94,-17.71 1.23,-26.38 -1.87,-15.96 -4.1,-31.9 -6.68,-47.8l7.26 14.47c-0.16,-9.1 -0.08,-18.33 0.24,-27.7l-0.37 -5.57 24.17 -2.34c3.31,-0.27 6.52,-0.65 9.61,-1.14 -0.22,-0.21 -0.32,-0.5 -0.3,-0.85 0.02,-0.35 -0.08,-0.64 -0.3,-0.85 -0.4,-1.13 -0.58,-2.17 -0.52,-3.11 10.68,2.62 21.82,3.46 33.42,2.5 4.02,-0.33 8.06,-0.9 12.12,-1.7 7.03,-3.38 13.85,-6.98 20.43,-10.79l-6.48 7.89 12.62 -4.19 -0.23 3.87c1.43,-0.35 2.98,-0.6 4.64,-0.73l4.64 -0.73 -0.4 0.73 -0.11 1.76c-0.59,1.92 -0.93,3.82 -1.05,5.69l6.62 -4.4c-2.83,3.97 -5.44,8.16 -7.82,12.56l-0.27 4.58c-0.45,7.51 0.56,14.2 3.04,20.07l1.02 0.62 -0.4 0.73c1.02,2.72 2.4,5.18 4.15,7.37 -1.42,0.12 -2.72,0.11 -3.89,-0.03l-2.13 0.18c0.22,4.19 0.31,8.62 0.26,13.29l-3.55 0.29 -0.36 5.99c-0.68,11.27 -0.03,20.21 1.93,26.82l-11.57 -7.45 -0.48 2.14c-0.34,1.66 -0.78,3.22 -1.34,4.67 -5.68,-11.45 -13.77,-19.89 -24.28,-25.33 -6.34,3.56 -12.58,5.59 -18.74,6.1l-3.18 -0.09c-6.73,33.72 -11.11,67.6 -13.15,101.64l-0.7 17.57c1.54,13.65 3.33,27.05 5.37,40.2 3.27,0.43 6.68,0.62 10.21,0.56 3.61,-9.17 5.73,-19.04 6.37,-29.61l0.36 -5.99c-1.64,-4.07 -3.41,-8.01 -5.3,-11.83l-2.19 -4.72 7.45 5.34 -0.06 -4.9 -0.66 -6.6 0.36 -0.03c8.47,0.24 16.76,1.36 24.89,3.38 8.12,2.02 16.42,3.14 24.89,3.38l-1.43 12.03c0.73,-0.29 1.45,-0.53 2.16,-0.7 0.72,-0.18 1.49,-0.3 2.32,-0.37 0.83,-0.07 1.61,-0.25 2.33,-0.54 -8.36,13.77 -13.03,28.75 -14,44.95l-0.09 1.41c2.88,7 5.89,13.76 9.03,20.28 -3.19,-1.84 -6.12,-3.93 -8.81,-6.28 0.46,4.17 1.15,8.43 2.06,12.79l-1.05 -0.26c-1.66,0.14 -3.07,0.14 -4.24,0l-23.44 1.93 1.12 4.81c-12.04,-3.45 -24.45,-4.76 -37.22,-3.94l0.25 1.73 -16.34 1.35 -16 7.63zm45.59 -206.62c0.24,-0.02 0.36,-0.15 0.38,-0.38 6.88,-4.77 12.57,-13.18 17.06,-25.23l2.95 -7.95c-5.37,-0.72 -11.02,-0.84 -16.94,-0.36l-5.7 0.82 -1.33 22.18c0.49,-0.28 0.92,-0.6 1.29,-0.98 0.38,-0.38 0.81,-0.77 1.31,-1.16 0.49,-0.39 1.17,-0.8 2.02,-1.22 0.85,-0.42 1.64,-0.78 2.36,-1.07l-3.39 15.35zm113.47 188.26l-9.21 0.41c-5.68,0.47 -11.11,0.68 -16.29,0.64l-12.07 0.99 -0.02 0.35 -21.31 1.76c4.64,-6.69 8.63,-14.26 11.96,-22.71l6.37 -35.56 -2.59 1.97 -4.74 2.49c15.71,-45.91 27.04,-91.57 34,-136.99 0.03,-20.09 -0.08,-39.94 -0.32,-59.54l6.34 18.05c0.51,-8.45 1.25,-17.04 2.25,-25.76 -1.66,-3.83 -3.46,-7.19 -5.41,-10.07l6.39 -0.53 0.02 -0.35 6.75 -0.56c1.41,0.12 5.78,-0.13 13.12,-0.73 0.7,0.18 1.52,0.23 2.46,0.15l-0.33 -0.32 66.76 -5.5c-3.62,5.44 -6.93,11.55 -9.93,18.34 0.66,12.56 1.19,25.36 1.59,38.41 1,-1.02 3.21,-2.48 6.62,-4.4 -1.48,12.97 -2.62,26.03 -3.41,39.17 -2.12,35.45 -1.65,70.91 1.4,106.4l11.65 47.39 -8.35 -14.03c2.79,12.38 6.75,23.03 11.87,31.96l-66.76 5.5c2.33,-3.46 4.54,-7.03 6.65,-10.71l-1.09 -23.03c-8.12,-2.13 -16.55,-2.96 -25.29,-2.47l0.2 20.3 -5.11 -14.99c-0.63,6.59 -1.5,13.32 -2.62,20.19 1.85,4.52 3.96,8.67 6.32,12.44l-7.81 0.65 -0.04 0.7zm28.78 -73.5l1.58 -20.45c1.53,-25.59 1.64,-50.94 0.31,-76.06 -8.69,31.08 -15.54,62.83 -20.54,95.24 6.07,0.9 12.29,1.32 18.65,1.27zm164.57 60.71l-9.86 -0.59 -26.76 -1.65 -1.44 0.47c-8.09,1.37 -14.23,2.57 -18.42,3.62 -4.18,1.05 -8.42,1.98 -12.71,2.8l-1.8 0.5c-1.58,-16.92 -2.92,-33.86 -4.02,-50.82l-0.35 -5.93 -1.9 2.26c-1.46,0.82 -2.94,1.88 -4.43,3.17l1.49 -19.04c2.43,-40.61 1.53,-80.59 -2.71,-119.95l-2.33 -8.22 -0.15 2.46 -0.12 -3.84 -0.31 -0.67c-4,-15.79 -8.24,-31.56 -12.72,-47.3l7.45 11.3c-2.88,-10.97 -6.67,-20.35 -11.39,-28.14l8.88 -0.73 0.02 -0.35 52.91 -4.36 -0.02 0.35 4.97 -0.41c-1.55,2.23 -3.11,4.69 -4.68,7.39l3.19 41.08c0.27,-0.49 0.59,-0.92 0.96,-1.31 0.38,-0.38 0.81,-0.77 1.31,-1.16 0.5,-0.39 1.11,-0.85 1.85,-1.38 0.74,-0.53 1.48,-1.06 2.22,-1.58l-1.39 17.28c-2.17,36.15 -1.7,71.61 1.4,106.4 10.44,-32.63 18.89,-65.56 25.35,-98.79 1.26,-21.13 2.04,-41.98 2.33,-62.56l5.17 19.89 2.66 -20.89c-1.25,-2.7 -2.64,-5.16 -4.15,-7.37l4.97 -0.41 0.02 -0.35 52.56 -4.33 -0.02 0.35 9.23 -0.76c-7.26,11.11 -13.24,24.33 -17.92,39.67l-3.52 17.46c1,-1.02 3.43,-2.27 7.29,-3.75 -18.52,49.64 -32.25,99.94 -41.19,150.9 -1.01,16.9 -1.68,33.89 -1.99,50.97l-4.31 -16.46 -4.93 29.14 -0.69 5.66zm63.06 -2.74c2.27,-2.52 4.77,-4.95 7.5,-7.28 -2.13,0.18 -7.15,1.41 -15.06,3.69l0.09 -7.36c0.29,-4.93 0.32,-9.25 0.07,-12.97l0.38 -6.34c-0.11,-2.09 -0.1,-4.2 0.02,-6.31 0.13,-2.11 0.13,-4.1 0,-5.96l2.13 -0.18 1.22 -20.42c-0.25,0.25 -0.56,0.57 -0.94,0.95 -0.38,0.38 -0.93,0.78 -1.66,1.19 -0.73,0.41 -1.4,0.76 -2.01,1.04 -0.6,0.28 -1.03,0.49 -1.27,0.63 -0.24,0.14 -0.49,0.33 -0.74,0.59 8.78,-40.43 14.38,-80.84 16.8,-121.21l0.93 -15.49c-2.1,-19.91 -4.58,-39.56 -7.42,-58.95l8.47 17.87c-0.2,-12.36 -0.53,-24.6 -0.98,-36.71l9.92 -0.47 7.79 -0.29 9.23 -0.76 4.95 -0.06c0.07,-1.17 -0.1,-2.21 -0.52,-3.11 3.23,1.14 6.36,2.05 9.38,2.73 4.02,-0.33 7.92,-0.54 11.7,-0.61l-0.15 2.46c6.57,0.39 13.41,0.3 20.51,-0.29 -0.17,-1.16 -0.46,-2.18 -0.88,-3.08 2.84,-0.23 4.98,-0.53 6.41,-0.88l4.62 -0.38 10.55 -5.07 -3.8 4.52 34.8 -2.87 -1.37 16.93c0.47,-0.04 1.01,-0.14 1.61,-0.31 0.6,-0.17 1.02,-0.38 1.28,-0.63l3.93 -0.68c-7.35,12.52 -11.39,25 -12.14,37.44l-0.11 7.72c2.55,4.7 5.34,9.25 8.37,13.68l-7.54 -3.93 0.56 8.36c0.22,0.22 0.32,0.5 0.3,0.85 -0.02,0.35 0.08,0.64 0.3,0.85l-1.06 0.09c2.39,7.28 4.76,12.92 7.11,16.93 -2.1,-0.29 -4.37,-0.75 -6.81,-1.37 -2.44,-0.62 -4.71,-1.07 -6.81,-1.37l0.29 1.03 -0.34 5.63c-8.46,-8.18 -18.79,-12.82 -30.97,-13.91 -4,3.83 -8.31,6.99 -12.94,9.48 -4.62,2.48 -7.65,3.78 -9.07,3.9 0.01,-0.23 0.4,-0.85 1.17,-1.85 2.51,-2.54 5.28,-7.56 8.32,-15.05 0.32,-5.4 0.76,-10.69 1.3,-15.88l-1.06 0.09c-0.5,0.51 -1.4,0.82 -2.71,0.92 -1.3,0.11 -2.31,0.31 -3.04,0.6 4.74,-8.33 8.05,-16.43 9.94,-24.29 -7.42,-1.96 -15.14,-2.84 -23.16,-2.64l-1.16 19.37c0.49,-0.27 0.92,-0.6 1.29,-0.98 0.38,-0.38 0.69,-0.7 0.94,-0.95l4.74 -2.49c-4.77,20.71 -8.47,41.11 -11.08,61.18l12.07 -0.99 11.66 -11.82 -3.76 9.77 7.33 -4.46 0.29 1.03 -0.21 3.52c4.56,-1.31 8.3,-2.9 11.24,-4.78 2.94,-1.88 4.97,-3.27 6.08,-4.18 1.11,-0.91 1.79,-1.37 2.03,-1.39l-0.04 0.7c-0.11,1.88 -1.37,5.13 -3.77,9.77 -2.4,4.64 -5.49,9.1 -9.28,13.38 1.3,13.67 6.25,25.41 14.85,35.21 -0.95,0.08 -1.77,0.03 -2.46,-0.15l-3.2 0.26 -1.4 -0.23c0.58,2.05 1.14,4.52 1.68,7.4 0.53,2.88 1.09,5.46 1.66,7.75 -6.08,-4.64 -15.38,-8.66 -27.9,-12.07l0.14 3.49c-2.94,-2.09 -6.02,-3.71 -9.25,-4.84 -3.74,-0.39 -7.97,-0.63 -12.68,-0.71l-2.36 39.43c1.02,10.43 2.3,20.6 3.83,30.52 5.91,-0.25 12.05,-0.64 18.44,-1.17 2.29,-6.73 3.65,-13.73 4.08,-21.01l0.25 -4.23c-2.95,-5.83 -6.26,-11.51 -9.93,-17.05l9.25 4.84 -2.52 -11 27.34 -2.25c8.52,-0.7 14.21,-1.29 17.07,-1.76l8.17 -0.67 -1.39 17.28c0.49,-0.27 0.91,-0.42 1.26,-0.45 0.35,-0.03 0.66,-0.17 0.91,-0.42 1.42,-0.12 2.97,-0.48 4.66,-1.09 -7.35,12.52 -11.39,25 -12.14,37.44l-0.11 7.72c2.54,4.7 5.33,9.37 8.35,14.03l-7.54 -3.93 0.56 8.36 0.31 0.67 -0.06 1.06 -14.2 1.17 -0.19 3.17 -23.1 2.25c0.45,0.43 0.86,1.45 1.23,3.05 -0.04,0.7 0.04,1.28 0.25,1.73 -12.1,-2.51 -24.05,-3.62 -35.84,-3.35l-0.15 2.46 -8.86 0.38c-3.08,0.25 -6.03,0.38 -8.86,0.38l-7.1 0.59 -13.39 5.31 -5.45 2.55zm191.79 -22.11l-66.76 5.5c2.34,-3.7 4.58,-7.62 6.71,-11.76l3.05 -45.1c-0.25,0.25 -0.57,0.63 -0.95,1.13 -0.38,0.5 -2.39,1.6 -6.03,3.3 9.28,-40.94 15.14,-81.72 17.57,-122.32l1.12 -24.62 -5.97 -47.86c1.03,2.48 2.18,4.9 3.45,7.25 1.27,2.35 2.42,4.76 3.45,7.25 -0.09,-6.3 0.04,-12.38 0.39,-18.25 -2.03,-5.44 -4.33,-10.27 -6.91,-14.5l66.76 -5.5c-3.86,5.46 -7.17,11.45 -9.91,17.98 -1.01,12.93 -1.91,25.97 -2.7,39.11 0.74,-0.53 1.66,-1.19 2.77,-1.98 1.11,-0.79 2.51,-1.61 4.21,-2.45 -9.33,41.64 -15.23,83.24 -17.72,124.79l-0.69 11.62c2.13,19.45 4.5,38.99 7.09,58.63l-5.9 -13.53c-0.86,-1.33 -1.6,-2.79 -2.21,-4.37l0.41 16.78c2.39,7.28 5.31,13.58 8.76,18.9zm149.37 13.62l-64.44 -9.75c-2.6,-31.32 -4.12,-51.28 -4.54,-59.89l-1.9 2.26c-1.49,1.29 -2.97,2.35 -4.43,3.17 0.79,-9.17 1.46,-18.46 2.02,-27.85l0.82 -13.73c-0.06,0.94 0.12,1.98 0.52,3.11l-1.6 -14.58c-3.86,-2.49 -7.89,-4.02 -12.09,-4.61l-0.72 11.97 -1.12 24.62c1.48,14.59 3.31,29.27 5.49,44.04l0.46 4.17 -6.89 -14.85 -0.6 27.73 0.37 5.58 -51.14 4.21 3.73 -56.37c-0.75,0.76 -1.49,1.35 -2.22,1.76 -0.73,0.41 -1.52,0.83 -2.37,1.25 -0.85,0.42 -1.64,0.9 -2.38,1.42 8.95,-39.28 14.6,-78.52 16.94,-117.72l0.74 -18.28c-2.12,-19.68 -4.6,-39.21 -7.45,-58.6 2.95,5.83 5.77,11.79 8.47,17.87 -0.2,-12.36 -0.53,-24.6 -0.98,-36.71l36.22 -2.99c0.03,-0.47 -0.07,-0.81 -0.29,-1.03 0.07,-1.17 -0.1,-2.21 -0.52,-3.11 4.4,1.27 8.69,2.32 12.89,3.14l4.26 -0.35 -0.06 1.06c4.44,0.57 9.02,0.89 13.72,0.97l-0.23 -2.08 9.96 -1.17c2.84,-0.23 5.57,-0.58 8.19,-1.02l2.84 -0.23c3.64,-1.7 7.16,-3.51 10.57,-5.43l-3.8 4.52c2.84,-0.23 5.63,-0.52 8.36,-0.86 2.73,-0.34 5.52,-0.75 8.38,-1.22l8.17 -0.67c-0.68,19.21 -1.49,38.66 -2.43,58.36 1.51,-1.53 3.72,-3.11 6.65,-4.75l-6.01 35.53c-0.25,4.23 -1.2,8.16 -2.83,11.79 -6.8,11.31 -13.26,22.82 -19.38,34.53 1.89,11.76 4,23.61 6.35,35.56 0.21,0.45 0.29,0.97 0.26,1.56 -0.03,0.59 0.05,1.11 0.26,1.55 -0.1,1.64 0.57,10.11 2.01,25.41 3.99,16.02 8.1,31.92 12.34,47.69l-9.08 -13.62 3.41 31.6c0.15,1.39 0.84,3.73 2.05,7.01 1.22,3.29 2.9,6.59 5.06,9.92 2.16,3.33 4.82,6.03 8,8.1zm-81.1 -168.15c1.42,-0.12 2.61,-0.33 3.57,-0.65 3.73,-3.34 7.25,-6.9 10.53,-10.68l9.33 -20.04c0.31,-5.16 -1.68,-21.12 -5.97,-47.86 -3.74,-0.39 -7.62,-0.54 -11.63,-0.44l-1.2 20.07 2.24 -1.94 4.74 -2.49c-4.83,21.65 -8.7,42.99 -11.61,64.02zm125.59 139.26l-9.21 0.41c-5.68,0.47 -11.11,0.68 -16.29,0.64l-12.07 0.99 -0.02 0.35 -21.31 1.76c4.64,-6.69 8.63,-14.26 11.96,-22.71l6.37 -35.56 -2.59 1.97 -4.74 2.49c15.71,-45.91 27.04,-91.57 34,-136.99 0.02,-20.09 -0.08,-39.94 -0.32,-59.54l6.34 18.05c0.51,-8.45 1.25,-17.04 2.25,-25.76 -1.66,-3.83 -3.46,-7.19 -5.41,-10.07l6.39 -0.53 0.02 -0.35 6.75 -0.56c1.41,0.12 5.78,-0.13 13.12,-0.73 0.7,0.18 1.52,0.23 2.46,0.15l-0.33 -0.32 66.76 -5.5c-3.62,5.44 -6.93,11.55 -9.93,18.34 0.66,12.56 1.19,25.36 1.59,38.41 1,-1.02 3.21,-2.48 6.62,-4.4 -1.48,12.97 -2.62,26.03 -3.41,39.17 -2.12,35.45 -1.65,70.91 1.4,106.4l11.65 47.39 -8.35 -14.03c2.79,12.38 6.75,23.03 11.87,31.96l-66.76 5.5c2.33,-3.46 4.54,-7.03 6.65,-10.71l-1.09 -23.03c-8.12,-2.13 -16.55,-2.96 -25.3,-2.47l0.2 20.3 -5.11 -14.99c-0.63,6.59 -1.5,13.32 -2.62,20.19 1.85,4.52 3.96,8.67 6.32,12.44l-7.81 0.65 -0.04 0.7zm28.78 -73.5l1.58 -20.45c1.53,-25.59 1.64,-50.94 0.31,-76.06 -8.69,31.08 -15.54,62.83 -20.54,95.24 6.07,0.9 12.29,1.32 18.65,1.27z"/>
   <path class="fil5" d="M658.93 714.89l-9.28 0.32c-5.7,0.42 -11.18,0.59 -16.43,0.5l-12.1 0.89 0.03 0.36 -21.36 1.57c3.8,-6.73 6.82,-14.35 9.06,-22.86l1.66 -35.92 -2.36 1.96 -4.47 2.47c9.72,-46.3 15.04,-92.39 15.96,-138.28 -2.69,-20.32 -5.48,-40.41 -8.37,-60.24l8.87 18.32c-0.63,-8.54 -1.03,-17.22 -1.2,-26.04 -2.19,-3.9 -4.47,-7.31 -6.84,-10.24l6.41 -0.47 -0.03 -0.36 6.76 -0.5c1.44,0.13 5.84,-0.07 13.2,-0.61 0.73,0.18 1.57,0.24 2.52,0.17l-0.39 -0.33 66.94 -4.92c-2.94,5.47 -5.47,11.62 -7.59,18.46 2.37,12.71 4.63,25.67 6.8,38.88 0.88,-1.02 2.92,-2.48 6.12,-4.39 0.25,13.11 0.86,26.3 1.84,39.6 2.64,35.84 7.9,71.73 15.79,107.66l18.21 48.06 -10.36 -14.28c4.5,12.56 9.95,23.37 16.35,32.45l-66.94 4.92c1.89,-3.48 3.65,-7.07 5.3,-10.77l-4.22 -23.32c-8.52,-2.24 -17.18,-3.15 -25.98,-2.74l2.94 20.55 -7.2 -15.22c0.25,6.67 0.27,13.47 0.07,20.4 2.48,4.59 5.18,8.81 8.09,12.65l-7.83 0.58 0.05 0.71zm19.25 -74.08l-1.16 -20.68c-1.9,-25.88 -5.22,-51.53 -9.96,-76.95 -4.62,31.37 -7.27,63.42 -7.96,96.17 6.27,0.97 12.64,1.46 19.08,1.46zm155.33 58.02l-66.94 4.92c2.97,-4.99 5.43,-10.54 7.37,-16.65l-2.96 -40.24c-0.22,0.26 -0.5,0.58 -0.83,0.96 -0.33,0.38 -0.72,0.71 -1.18,0.98l-4.47 2.48c3.56,-39.17 3.91,-78.21 1.05,-117.14l-1.74 -18.85c-3.42,-14.07 -7.08,-28.12 -10.98,-42.15l-21.58 8.38c2.69,-2.34 5.37,-4.93 8.02,-7.75 -3.03,0.94 -6.74,2.46 -11.12,4.57 -4.38,2.12 -7.91,4.35 -10.6,6.69 -0.47,-6.41 -0.39,-13.34 0.26,-20.79 0.79,-8.65 0.87,-17.36 0.23,-26.14 9.02,-0.66 17.93,-1.2 26.73,-1.61l-2.53 -5.18c17.42,3.25 34.45,4.39 51.08,3.4l13.89 -1.02c1.41,-0.34 2.94,-0.57 4.6,-0.69 7.67,-2.71 15.1,-5.64 22.26,-8.8l-6.68 6.57 6.71 -1.21c4.27,-0.31 6.87,-0.75 7.78,-1.29l1.07 -0.08 0.03 0.35c1.14,8.99 2.86,17.81 5.17,26.47 2,7.73 3.47,14.78 4.42,21.16 -4.48,-2.54 -9.82,-4.53 -16.01,-5.99 -6.19,-1.45 -11.54,-2.01 -16.05,-1.68l1.17 1.34 1.33 3.48c-4.85,-1.07 -9.8,-1.78 -14.83,-2.13l1.39 18.87c0.44,-0.51 0.83,-0.89 1.17,-1.16 0.34,-0.26 1.65,-1.07 3.94,-2.44l0.35 -0.03 -0.03 -0.35c0.47,-0.04 0.82,-0.18 1.04,-0.43 -3.26,40.09 -3.4,80.32 -0.43,120.67l2.29 26.33c3.4,13.83 7.04,27.64 10.92,41.44l1.92 6.66c-2.76,-5.05 -5.74,-9.96 -8.96,-14.74l2.33 17.01c2.57,5.78 5.7,11.04 9.39,15.78zm-74.49 -224.35l-0.59 -3.18 -1.04 0.44c0.77,0.66 1.31,1.57 1.64,2.74zm145.23 222.36l-9.28 0.32c-5.7,0.42 -11.18,0.59 -16.43,0.5l-12.1 0.89 0.03 0.36 -21.36 1.57c3.8,-6.72 6.82,-14.34 9.06,-22.86l1.65 -35.92 -2.36 1.96 -4.47 2.47c9.72,-46.3 15.04,-92.39 15.96,-138.28 -2.69,-20.32 -5.48,-40.41 -8.37,-60.24l8.87 18.32c-0.63,-8.54 -1.03,-17.22 -1.2,-26.04 -2.19,-3.9 -4.47,-7.31 -6.84,-10.24l6.41 -0.47 -0.03 -0.36 6.77 -0.5c1.44,0.13 5.84,-0.07 13.2,-0.61 0.73,0.19 1.57,0.24 2.52,0.17l-0.38 -0.33 66.94 -4.92c-2.94,5.47 -5.47,11.62 -7.59,18.46 2.37,12.71 4.63,25.67 6.8,38.88 0.88,-1.02 2.92,-2.48 6.12,-4.39 0.25,13.11 0.86,26.31 1.84,39.6 2.64,35.84 7.9,71.73 15.79,107.66l18.21 48.07 -10.36 -14.28c4.5,12.56 9.95,23.37 16.35,32.45l-66.94 4.92c1.89,-3.48 3.66,-7.07 5.3,-10.77l-4.22 -23.32c-8.52,-2.23 -17.18,-3.15 -25.98,-2.74l2.94 20.55 -7.2 -15.22c0.25,6.67 0.27,13.47 0.07,20.4 2.48,4.59 5.18,8.81 8.09,12.65l-7.83 0.58 0.05 0.71zm19.25 -74.08l-1.16 -20.68c-1.9,-25.88 -5.22,-51.52 -9.96,-76.95 -4.62,31.37 -7.27,63.42 -7.96,96.17 6.28,0.97 12.64,1.46 19.08,1.46zm104.69 70.34c1.71,-2.75 3.45,-5.03 5.22,-6.83l-2.49 0.18c-2.85,0.21 -6.01,1.03 -9.48,2.49l-0.1 -1.42 -14.24 1.05 -4.19 -56.97 -2.01 1.94 -4.47 2.48c3.22,-40.57 3.35,-81.03 0.38,-121.38 -0.66,-9.02 -1.44,-17.91 -2.32,-26.68 -4.06,-16.17 -8.46,-32.31 -13.23,-48.43l9.31 14.7c-1.39,-9.2 -2.55,-18.55 -3.49,-28.02l-1.13 -5.64 24.18 -2.13c3.33,-0.24 6.52,-0.6 9.59,-1.06 -0.25,-0.22 -0.39,-0.51 -0.42,-0.87 -0.03,-0.36 -0.17,-0.64 -0.42,-0.87 -0.56,-1.15 -0.88,-2.2 -0.95,-3.15 11.18,2.76 22.59,3.71 34.22,2.85 4.03,-0.3 8.05,-0.83 12.05,-1.61 6.67,-3.35 13.1,-6.93 19.26,-10.72l-5.5 7.92 12.23 -4.12 0.29 3.92c1.41,-0.34 2.94,-0.58 4.6,-0.7l4.6 -0.69 -0.3 0.74 0.13 1.78c-0.33,1.93 -0.43,3.85 -0.29,5.75l6.12 -4.39c-2.33,3.99 -4.41,8.2 -6.23,12.63l0.34 4.63c0.56,7.6 2.49,14.38 5.79,20.34l1.12 0.63 -0.3 0.74c1.4,2.76 3.13,5.26 5.2,7.49 -1.42,0.1 -2.74,0.08 -3.94,-0.07l-2.14 0.16c0.79,4.24 1.48,8.73 2.06,13.45l-3.56 0.26 0.45 6.06c0.84,11.39 2.7,20.44 5.58,27.15l-12.74 -7.66 -0.2 2.16c-0.12,1.68 -0.36,3.25 -0.73,4.71 -7.3,-11.63 -16.64,-20.25 -28.04,-25.86 -5.94,3.54 -12,5.54 -18.18,5.99l-3.23 -0.12c-2.27,34.06 -2.14,68.29 0.39,102.71l1.67 17.77c3.4,13.83 7.03,27.41 10.87,40.73 3.37,0.47 6.85,0.69 10.43,0.66 2.42,-9.25 3.24,-19.21 2.45,-29.89l-0.45 -6.05c-2.22,-4.13 -4.54,-8.14 -6.97,-12.02l-2.86 -4.8 8.28 5.48 -0.72 -4.96 -1.57 -6.69 0.35 -0.03c8.62,0.32 17.18,1.54 25.69,3.66 8.51,2.12 17.07,3.34 25.69,3.66l0.18 12.16c0.7,-0.29 1.39,-0.52 2.1,-0.69 0.71,-0.17 1.47,-0.29 2.3,-0.35 0.83,-0.06 1.59,-0.24 2.29,-0.52 -6.62,13.85 -9.32,28.97 -8.12,45.34l0.1 1.42c3.87,7.11 7.83,13.98 11.9,20.61 -3.48,-1.89 -6.74,-4.04 -9.78,-6.44 1.03,4.22 2.3,8.54 3.82,12.96l-1.09 -0.28c-1.66,0.12 -3.1,0.11 -4.3,-0.04l-23.5 1.73 1.79 4.88c-12.67,-3.6 -25.43,-5.05 -38.26,-4.35l0.49 1.76 -16.38 1.2 -15.2 7.56zm18.31 -208.62c0.23,-0.02 0.35,-0.14 0.33,-0.38 6.33,-4.76 10.96,-13.22 13.89,-25.36l1.92 -8.02c-5.55,-0.79 -11.29,-0.96 -17.22,-0.52l-5.67 0.78 1.65 22.43c0.46,-0.27 0.85,-0.6 1.18,-0.98 0.33,-0.38 0.72,-0.77 1.17,-1.16 0.45,-0.39 1.07,-0.8 1.88,-1.21 0.8,-0.42 1.55,-0.77 2.25,-1.06l-1.37 15.49zm140.45 191.57l-9.28 0.33c-5.7,0.42 -11.18,0.59 -16.43,0.5l-12.1 0.89 0.03 0.35 -21.36 1.57c3.8,-6.72 6.82,-14.34 9.06,-22.86l1.66 -35.92 -2.36 1.97 -4.47 2.47c9.72,-46.29 15.04,-92.39 15.96,-138.28 -2.69,-20.32 -5.48,-40.41 -8.37,-60.24l8.87 18.32c-0.63,-8.54 -1.03,-17.22 -1.2,-26.04 -2.2,-3.9 -4.47,-7.31 -6.84,-10.24l6.41 -0.47 -0.03 -0.35 6.77 -0.5c1.44,0.13 5.84,-0.07 13.2,-0.61 0.73,0.19 1.57,0.24 2.52,0.17l-0.38 -0.33 66.94 -4.92c-2.94,5.47 -5.47,11.62 -7.59,18.46 2.37,12.71 4.63,25.67 6.8,38.88 0.88,-1.02 2.92,-2.48 6.12,-4.39 0.25,13.11 0.86,26.3 1.84,39.6 2.63,35.84 7.9,71.73 15.79,107.66l18.21 48.06 -10.36 -14.28c4.5,12.56 9.95,23.37 16.35,32.45l-66.94 4.92c1.89,-3.48 3.66,-7.07 5.3,-10.77l-4.22 -23.32c-8.52,-2.23 -17.18,-3.15 -25.98,-2.74l2.94 20.55 -7.2 -15.22c0.25,6.67 0.27,13.47 0.07,20.4 2.48,4.59 5.18,8.81 8.09,12.65l-7.83 0.58 0.05 0.71zm19.25 -74.08l-1.16 -20.68c-1.9,-25.88 -5.22,-51.53 -9.96,-76.95 -4.62,31.37 -7.27,63.42 -7.96,96.17 6.28,0.97 12.64,1.46 19.08,1.46zm158.13 66.77c-12.02,-4.37 -24.32,-6.09 -36.89,-5.16l-7.1 0.88 -8.97 4.6c-1.59,1.07 -3.31,2.03 -5.15,2.89l4.21 -6.04c-2.61,0.19 -5.09,0.61 -7.43,1.26 -1.42,0.1 -2.25,0.28 -2.46,0.54l-0.18 -2.49 -11.39 0.84 -4.14 -56.26c-0.22,0.25 -0.5,0.57 -0.83,0.95 -0.33,0.39 -0.67,0.71 -1,0.97 -0.34,0.27 -0.74,0.53 -1.19,0.8 -0.46,0.27 -0.92,0.49 -1.39,0.64 -0.46,0.15 -0.82,0.3 -1.04,0.44 -0.23,0.13 -0.45,0.33 -0.67,0.58 3.33,-39.14 3.56,-78.18 0.69,-117.11l-1.79 -19.56c-4.79,-19.69 -10.04,-39.23 -15.77,-58.62l10.97 17.81c-1.86,-12.27 -3.95,-24.53 -6.29,-36.77l13.89 -1.02 -0.03 -0.35 12.79 -1.3 -0.08 -1.07c-0.82,-1.37 -1.31,-3.25 -1.49,-5.62 5.48,3.18 11.13,5.27 16.93,6.27l10.68 -0.79 0.08 1.07c0.95,-0.07 1.77,-0.25 2.47,-0.54l2.14 -0.16c4.49,-3.91 8.71,-8.16 12.67,-12.74l-3.19 10.26 7.9 -4.52 0.13 1.78c0.04,0.47 0.18,0.82 0.43,1.04 2.49,-1.85 4.84,-3.94 7.06,-6.25 14.61,16.82 27.17,35.23 37.71,55.22 0.2,-0.49 0.35,-0.98 0.43,-1.46 0.09,-0.48 0.28,-1.03 0.6,-1.65 0.31,-0.62 0.74,-1.25 1.29,-1.89 0.55,-0.64 1.04,-1.33 1.46,-2.08 9.55,26.03 15.34,52.81 17.37,80.34 1.85,25.16 1.01,49.45 -2.52,72.86 -0.35,17.92 -1.91,35.7 -4.67,53.32 -0.44,-5.93 -1.25,-12.08 -2.43,-18.44 -2.39,9.72 -5.26,19.36 -8.61,28.92 -0.17,0.97 -0.39,1.99 -0.67,3.09 -0.28,1.09 -0.62,2.13 -1.02,3.12l-8.5 -3.67 0.35 9.64c-2.63,-0.05 -5.37,0.03 -8.22,0.24 -2.85,0.21 -5.7,0.3 -8.57,0.27 0.25,0.22 0.39,0.51 0.42,0.87 0.03,0.36 0.11,0.71 0.26,1.06 0.14,0.35 0.35,0.75 0.63,1.21l0.13 1.78zm-20.82 -39.64c5.21,-13.51 9.46,-27.18 12.73,-41.03 -0.24,0.02 -0.59,0.16 -1.04,0.44 -0.46,0.27 -1.04,0.49 -1.74,0.66 -0.7,0.17 -1.47,0.28 -2.3,0.35 -0.83,0.06 -1.59,0.24 -2.29,0.53 11.45,-26.14 16.15,-52.97 14.13,-80.51 -0.47,-6.41 -1.3,-12.79 -2.48,-19.15 -1.82,-11.8 -5.96,-22.59 -12.41,-32.38 -3.77,-5.93 -8.29,-10.61 -13.56,-14.04 0.26,0.22 0.54,0.8 0.84,1.73 0.31,0.93 0.53,2.35 0.67,4.25 -4.48,-2.54 -8.91,-4.36 -13.29,-5.47l0.58 7.83 1.37 -0.82c1.57,-1.3 3.27,-2.5 5.11,-3.59 -3.31,39.38 -3.52,78.65 -0.64,117.82 0.73,9.97 1.69,19.8 2.88,29.5l8.92 33.71c1.19,-0.09 2.03,-0.03 2.52,0.17zm101.28 33.72l6.27 -7.26 -2.14 0.16c-3.73,1.23 -7.58,2.35 -11.56,3.36 -0.05,-0.71 -0.21,-1.18 -0.46,-1.4l-0.05 -0.71 -11.75 0.86 -4.19 -56.97 -2.01 1.94 -4.47 2.48c3.22,-40.57 3.35,-81.03 0.38,-121.38 -0.66,-9.02 -1.44,-17.91 -2.32,-26.68 -4.05,-16.17 -8.46,-32.31 -13.23,-48.43l9.31 14.71c-1.39,-9.2 -2.55,-18.55 -3.49,-28.03l-1.13 -5.64 43.08 -3.17 -0.41 -0.68c-0.09,-1.19 -0.4,-2.24 -0.94,-3.15 9.99,2.84 19.88,4.27 29.66,4.26l-0.56 -2.83 21.72 -1.6 11.36 -6.21 -3.88 5.66 6.05 -0.45 4.22 -1.03 0.05 0.71 11.77 -0.51 3.81 56.64c2.71,-2.11 4.75,-3.57 6.12,-4.39 -3.61,41.79 -3.87,83.69 -0.78,125.71l0.89 12.11c4.79,19.69 9.83,39.49 15.11,59.39 -1.89,-2.96 -3.66,-6 -5.32,-9.09 -1.66,-3.1 -3.43,-6.14 -5.32,-9.1l5.93 36.8 -27.06 1.99 1.76 4.53c-6.8,-1.65 -13.33,-2.72 -19.57,-3.21l-7.83 0.58 -0.08 -1.07c-5.27,-0.33 -10.76,-0.28 -16.46,0.14l0.41 0.69 0.08 1.07 -15.31 1.12 -17.66 8.1zm46.73 -46.04l-1.54 -21.01c-0.22,0.25 -0.5,0.57 -0.83,0.95 -0.33,0.39 -0.78,0.72 -1.36,1 -0.58,0.28 -1.27,0.63 -2.07,1.05 -0.81,0.42 -1.55,0.89 -2.22,1.42 3.83,-42.05 4.2,-84.07 1.11,-126.09l-2 -22.41 -7.57 -29.87 -11.42 0.48 -5.7 0.42 1.47 19.94c0.46,-0.27 0.85,-0.6 1.18,-0.98 0.33,-0.39 0.72,-0.77 1.17,-1.16 0.45,-0.39 1.07,-0.8 1.88,-1.21 0.8,-0.42 1.55,-0.77 2.25,-1.06 -3.55,39.4 -3.87,78.8 -0.97,118.21l1.77 19.2c3.38,13.6 7.01,27.17 10.87,40.73 4.32,0.4 8.98,0.53 13.99,0.4z"/>
  </g>
 </g>
</svg>
